<?xml version="1.0" encoding="UTF-8" standalone="no"?>
<svg
   width="247mm"
   height="125mm"
   viewBox="0 0 247 125"
   version="1.1"
   preserveAspectRatio="xMidYMid meet"
   id="svg15"
   sodipodi:docname="DieboxDruck.svg"
   inkscape:version="1.1 (c68e22c387, 2021-05-23)"
   xmlns:inkscape="http://www.inkscape.org/namespaces/inkscape"
   xmlns:sodipodi="http://sodipodi.sourceforge.net/DTD/sodipodi-0.dtd"
   xmlns="http://www.w3.org/2000/svg"
   xmlns:svg="http://www.w3.org/2000/svg">
  <defs
     id="defs19" />
  <sodipodi:namedview
     id="namedview17"
     pagecolor="#ffffff"
     bordercolor="#666666"
     borderopacity="1.0"
     inkscape:pageshadow="2"
     inkscape:pageopacity="0.0"
     inkscape:pagecheckerboard="0"
     inkscape:document-units="mm"
     showgrid="false"
     showguides="true"
     inkscape:guide-bbox="true"
     inkscape:zoom="1.4142136"
     inkscape:rotation="1"
     inkscape:cx="497.67065"
     inkscape:cy="210.90323"
     inkscape:window-width="1920"
     inkscape:window-height="1017"
     inkscape:window-x="-8"
     inkscape:window-y="-8"
     inkscape:window-maximized="1"
     inkscape:current-layer="svgGroup">
    <sodipodi:guide
       position="-3.1358932,9.5238403"
       orientation="1,0"
       id="guide13563" />
  </sodipodi:namedview>
  <g
     id="svgGroup"
     stroke-linecap="round"
     fill-rule="evenodd"
     font-size="12px"
     stroke="#000"
     stroke-width="0.25mm"
     fill="none"
     style="display:inline;fill:none;stroke:#000000;stroke-width:0.25mm"
     transform="translate(2.6396278,0.29329203)"
     inkscape:groupmode="layer">
    <path
       d="m 4.137035,67.580953 v 6.683411 H 7.3035905 V 86.979141 H 4.137035 v 6.683411 h 11.478763 v -3.912238 h 10.291306 v 3.912238 h 10.291307 v -3.912238 h 10.29131 v 3.912238 h 10.291301 v -3.912238 h 10.291312 v 3.912238 h 10.291301 v -3.912238 h 10.291301 v 3.912238 H 99.133709 V 86.979141 H 95.967145 V 74.264364 h 3.166564 V 67.580953 H 87.654936 v 3.912241 H 77.363635 V 67.580953 H 67.072334 v 3.912241 H 56.781022 V 67.580953 H 46.489721 v 3.912241 H 36.198411 V 67.580953 H 25.907104 v 3.912241 H 15.615798 v -3.912241 z"
       id="front_outsideCutPath"
       stroke="#FF0000"
       stroke-width="0.1"
       style="stroke:#ff0000;stroke-width:0.117326"
       vector-effect="non-scaling-stroke" />
    <path
       d="m 54.509303,115.21228 h -0.341991 v -1.57011 a 0.96686168,1.0384188 0 0 0 -0.01161,-0.16326 q -0.02639,-0.17683 -0.113997,-0.28 a 0.38632246,0.41491408 0 0 0 -0.158329,-0.10768 q -0.09922,-0.0387 -0.235382,-0.0387 -0.354657,0 -0.520375,0.20632 -0.164662,0.20633 -0.164662,0.6802 v 1.2731 h -0.34199 V 112.785 h 0.278659 l 0.05489,0.33218 h 0.01689 a 0.69348048,0.7448048 0 0 1 0.27127,-0.2653 0.83386542,0.89557959 0 0 1 0.02322,-0.0125 0.9267517,0.99534035 0 0 1 0.33038,-0.0941 1.1209685,1.203931 0 0 1 0.09289,-0.004 q 0.270215,0 0.451765,0.093 a 0.61537157,0.66091507 0 0 1 0.162551,0.11905 q 0.156218,0.15983 0.194217,0.46816 a 1.4935691,1.6041078 0 0 1 0.01161,0.20749 z m -6.573815,-2.42715 v 0.28567 h -0.575262 v 2.14148 H 47.01718 v -2.14148 h -0.403211 v -0.16551 l 0.403211,-0.13377 v -0.13489 a 1.386961,1.4896095 0 0 1 0.03272,-0.33783 q 0.100274,-0.46026 0.509819,-0.53962 a 1.039693,1.1166403 0 0 1 0.185772,-0.017 1.101969,1.1835255 0 0 1 0.156218,0.0124 q 0.07494,0.0125 0.159384,0.034 a 2.2155488,2.379521 0 0 1 0.104497,0.0317 l -0.08866,0.29362 a 1.6613977,1.7843574 0 0 0 -0.128774,-0.0387 q -0.06544,-0.017 -0.122441,-0.0237 a 0.73570152,0.79015059 0 0 0 -0.08655,-0.006 0.4612648,0.49540287 0 0 0 -0.11083,0.0136 0.29660276,0.31855426 0 0 0 -0.176273,0.12471 0.39582219,0.42511689 0 0 0 -0.05172,0.11335 q -0.03483,0.10997 -0.04011,0.27548 a 1.6160101,1.7356106 0 0 0 0,0.0545 v 0.15757 z m 8.315432,2.12331 v 0.28115 q -0.04961,0.0259 -0.142496,0.0442 a 1.2814084,1.376245 0 0 1 -0.02111,0.003 q -0.101331,0.0182 -0.182606,0.0194 a 0.87714198,0.94205904 0 0 1 -0.01161,0 0.8940304,0.96019736 0 0 1 -0.263881,-0.0387 q -0.392656,-0.12925 -0.392656,-0.70402 v -1.44314 H 54.91357 v -0.17682 l 0.322991,-0.15305 0.144607,-0.51807 h 0.198439 v 0.56229 h 0.655481 v 0.28565 h -0.655481 v 1.42841 q 0,0.15419 0.0475,0.25734 a 0.33143512,0.35596454 0 0 0 0.04961,0.0794 0.31771328,0.34122716 0 0 0 0.195273,0.1111 0.45704269,0.49086829 0 0 0 0.06966,0.006 1.124135,1.207332 0 0 0 0.164662,-0.0125 1.0354709,1.112106 0 0 0 0.01056,-0.002 q 0.08127,-0.0136 0.129829,-0.0284 a 0.51509662,0.5532188 0 0 0 0.0042,-10e-4 z m -6.602314,-2.14143 -0.0475,0.34121 q -0.140385,-0.0328 -0.248049,-0.0328 a 0.59320553,0.63710853 0 0 0 -0.438043,0.20292 0.81064385,0.8706394 0 0 0 -0.03061,0.0363 0.78108913,0.83889733 0 0 0 -0.188939,0.47161 1.0386374,1.1155067 0 0 0 -0.0063,0.12354 v 1.30259 h -0.34199 v -2.42715 h 0.282881 l 0.03905,0.45005 h 0.01583 a 1.1558008,1.2413413 0 0 1 0.12983,-0.19837 0.88241961,0.94772725 0 0 1 0.174162,-0.1678 0.6818697,0.73233469 0 0 1 0.389489,-0.12811 1.5706225,1.6868637 0 0 1 0.140385,0.007 1.1463011,1.2311384 0 0 1 0.129829,0.0193 z m 2.341157,1.59843 a 1.7680058,1.8988555 0 0 0 0.03166,-0.36958 q 0,-0.57702 -0.279714,-0.91596 a 0.89614145,0.96246464 0 0 0 -0.415877,-0.28796 1.1494677,1.2345396 0 0 0 -0.337769,-0.0511 1.328907,1.427259 0 0 0 -0.238548,0.0216 0.90564118,0.97266744 0 0 0 -0.527763,0.30947 0.94575116,1.0157459 0 0 0 -0.116108,0.17345 q -0.16044,0.29929 -0.16044,0.75047 0,0.38319 0.127719,0.66885 a 1.1251906,1.2084655 0 0 0 0.02533,0.0522 0.9267517,0.99534035 0 0 0 0.337768,0.38659 0.95313984,1.0236815 0 0 0 0.218494,0.10432 1.0988024,1.1801245 0 0 0 0.318769,0.0488 1.328907,1.427259 0 0 0 0.232216,-0.0216 0.91197434,0.97946931 0 0 0 0.537262,-0.31175 0.95419537,1.0248151 0 0 0 0.113997,-0.16777 q 0.09183,-0.17005 0.132997,-0.38998 z m -1.689897,-0.36958 a 1.7331734,1.8614451 0 0 0 0.01583,0.26641 q 0.019,0.13491 0.057,0.24374 a 0.71775758,0.77087863 0 0 0 0.100275,0.19839 0.56048423,0.60196551 0 0 0 0.365212,0.23126 0.84969831,0.91258425 0 0 0 0.143551,0.0125 0.79481097,0.85363473 0 0 0 0.21005,-0.0272 0.55309555,0.59402998 0 0 0 0.300825,-0.2154 q 0.174162,-0.24146 0.174162,-0.70967 a 1.7078408,1.8342377 0 0 0 -0.01689,-0.26071 q -0.01794,-0.13265 -0.05489,-0.24148 a 0.70509127,0.7572749 0 0 0 -0.102386,-0.20066 0.56259528,0.60423282 0 0 0 -0.350435,-0.22446 0.86342015,0.92732166 0 0 0 -0.164662,-0.0159 0.81486596,0.87517398 0 0 0 -0.202661,0.0259 0.54465134,0.58496086 0 0 0 -0.303991,0.21087 0.70720232,0.75954217 0 0 0 -0.109775,0.22899 q -0.03272,0.10434 -0.04855,0.23354 a 1.8081158,1.941934 0 0 0 -0.01267,0.24373 z"
       id="front_labelLayer"
       stroke="#777777"
       fill="#777777"
       style="fill:#777777;stroke:#777777;stroke-width:0.273472mm"
       vector-effect="non-scaling-stroke" />
    <path
       d="m 7.4825067,33.900842 v 6.691961 h -3 v 12.73104 h 3 v 6.69195 h 3.1250003 v -3.91724 h 9.75 v 3.91724 h 9.75 v -3.91724 h 9.75 v 3.91724 h 9.75 v -3.91724 h 9.75 v 3.91724 h 3.125 v -6.69195 h 3 v -12.73104 h -3 v -6.691961 h -3.125 v 3.917251 h -9.75 v -3.917251 h -9.75 v 3.917251 h -9.75 v -3.917251 h -9.75 v 3.917251 h -9.75 v -3.917251 z"
       id="left_outsideCutPath"
       stroke="#FF0000"
       stroke-width="0.1"
       style="stroke:#ff0000;stroke-width:0.114269"
       vector-effect="non-scaling-stroke" />
    <path
       d="m 36.405497,47.373253 v 0.29971 h -0.545 v 2.24664 h -0.324 v -2.24664 h -0.383 v -0.17364 l 0.383,-0.14034 v -0.14153 a 1.314,1.5627775 0 0 1 0.03,-0.35442 q 0.095,-0.48288 0.484,-0.56613 a 0.985,1.1714884 0 0 1 0.175,-0.0178 1.044,1.2416588 0 0 1 0.148,0.0131 q 0.072,0.0131 0.152,0.0357 a 2.099,2.4964002 0 0 1 0.099,0.0333 l -0.084,0.30805 a 1.574,1.8720028 0 0 0 -0.123,-0.0404 q -0.062,-0.0178 -0.116,-0.025 a 0.697,0.82896187 0 0 0 -0.082,-0.006 0.437,0.51973649 0 0 0 -0.105,0.0143 0.281,0.33420127 0 0 0 -0.166,0.13083 0.375,0.44599813 0 0 0 -0.05,0.11893 q -0.033,0.11536 -0.037,0.28901 a 1.531,1.8208617 0 0 0 -10e-4,0.0571 v 0.16532 z m -1.518,1.09894 v 0.24381 h -1.474 q 0.009,0.44837 0.19,0.68029 a 0.589,0.7005144 0 0 0 0.309,0.20814 0.893,1.0620702 0 0 0 0.2,0.025 q 0.346,0 0.683,-0.17246 v 0.34372 a 1.946,2.314433 0 0 1 -0.177,0.0797 1.488,1.7697206 0 0 1 -0.148,0.0476 q -0.153,0.0381 -0.37,0.0381 a 1.26,1.4985537 0 0 1 -0.315,-0.0452 0.892,1.0608809 0 0 1 -0.434,-0.29852 0.954,1.1346193 0 0 1 -0.228,-0.49833 q -0.04,-0.17721 -0.045,-0.38772 a 1.852,2.2026361 0 0 1 -10e-4,-0.069 1.702,2.0242369 0 0 1 0.031,-0.40199 q 0.058,-0.34134 0.224,-0.57564 a 0.831,0.98833187 0 0 1 0.605,-0.35918 1.146,1.3629703 0 0 1 0.079,-0.004 q 0.403,0 0.637,0.31517 0.234,0.31398 0.234,0.83015 z m 2.893,1.12867 v 0.29496 q -0.048,0.0273 -0.136,0.0464 a 1.214,1.4438446 0 0 1 -0.019,0.004 q -0.096,0.019 -0.174,0.0202 a 0.831,0.98833187 0 0 1 -0.011,0 0.847,1.0073611 0 0 1 -0.25,-0.0404 q -0.371,-0.13559 -0.371,-0.73857 v -1.51402 h -0.307 v -0.18553 l 0.307,-0.16056 0.137,-0.54353 h 0.187 v 0.58991 h 0.621 v 0.29971 h -0.621 v 1.49855 q 0,0.16175 0.045,0.26998 a 0.314,0.3734491 0 0 0 0.047,0.0833 0.301,0.35798784 0 0 0 0.185,0.11656 0.433,0.51497918 0 0 0 0.067,0.006 1.065,1.2666347 0 0 0 0.156,-0.0131 0.981,1.1667311 0 0 0 0.01,-0.002 q 0.076,-0.0143 0.123,-0.0297 a 0.488,0.58039224 0 0 0 0.004,-10e-4 z m -5.272,-3.29564 v 3.61438 h -0.324 v -3.61438 z m 0.912,2.09679 h 1.12 a 1.105,1.3142078 0 0 0 -0.014,-0.21051 q -0.029,-0.21408 -0.123,-0.34728 a 0.444,0.52806179 0 0 0 -0.268,-0.18196 0.666,0.79209269 0 0 0 -0.123,-0.0131 0.639,0.75998082 0 0 0 -0.184,0.0309 0.494,0.58752821 0 0 0 -0.227,0.16888 0.64,0.76117015 0 0 0 -0.127,0.25571 q -0.032,0.10585 -0.047,0.23192 a 1.225,1.4569272 0 0 0 -0.007,0.0654 z"
       id="left_labelLayer"
       stroke="#777777"
       fill="#777777"
       style="fill:#777777;stroke:#777777;stroke-width:0.272641mm"
       vector-effect="non-scaling-stroke" />
    <path
       d="m 146.6511,65.646137 v 3.124859 h -3.16657 v 9.749563 h 3.16657 v 9.749563 h -3.16657 v 9.749562 h 3.16657 v 9.749556 h -3.16657 v 9.74957 h 3.16657 v 3.12486 h 8.31226 v 2.99986 h 10.29137 v -2.99986 h 10.29137 v 2.99986 h 10.29137 v -2.99986 h 10.29138 v 2.99986 h 10.29137 v -2.99986 h 10.29137 v 2.99986 h 10.29137 v -2.99986 h 8.31226 v -3.12486 h 3.16657 v -9.74957 h -3.16657 v -9.749556 h 3.16657 v -9.749562 h -3.16657 v -9.749563 h 3.16657 v -9.749563 h -3.16657 v -3.124859 h -8.31226 v -2.999866 h -10.29137 v 2.999866 h -10.29137 v -2.999866 h -10.29137 v 2.999866 H 185.83747 V 62.646271 H 175.5461 v 2.999866 h -10.29137 v -2.999866 h -10.29137 v 2.999866 z"
       id="top_outsideCutPath"
       stroke="#FF0000"
       stroke-width="0.1"
       style="stroke:#ff0000;stroke-width:0.102736"
       vector-effect="non-scaling-stroke" />
    <path
       d="m 195.61058,94.860826 h -0.0749 a 9.8776044,9.3575802 0 0 1 0.0644,0.690969 8.2774282,7.8416482 0 0 1 0.0105,0.392982 v 2.68588 h -1.04391 v -9.458576 h 0.8497 l 0.1446,0.89296 h 0.0496 q 0.40321,-0.535976 0.93731,-0.773965 a 2.6134803,2.4758889 0 0 1 0.74942,-0.207991 3.3829581,3.2048562 0 0 1 0.4771,-0.03 3.1992967,3.030864 0 0 1 0.90353,0.113994 2.3643763,2.2398995 0 0 1 1.21174,0.772966 q 0.7452,0.88796 0.7452,2.489888 a 6.1199348,5.7977399 0 0 1 -0.0813,0.975956 q -0.094,0.519977 -0.29555,0.936958 a 2.9333044,2.7788753 0 0 1 -0.38105,0.585974 q -0.75786,0.89096 -2.1026,0.89096 a 3.1655199,2.9988655 0 0 1 -0.79587,-0.092 2.7549206,2.6098829 0 0 1 -0.43382,-0.143993 2.3116001,2.1899018 0 0 1 -0.93414,-0.722968 z m -10.19848,0.023 v 0.756966 q -0.15305,0.07 -0.43804,0.117995 a 3.9054431,3.699834 0 0 1 -0.0623,0.01 4.5239808,4.2858077 0 0 1 -0.29449,0.036 q -0.13933,0.013 -0.26388,0.014 a 2.6768118,2.5358862 0 0 1 -0.0359,0.001 2.7264215,2.5828841 0 0 1 -0.80326,-0.102995 q -1.19591,-0.348985 -1.19591,-1.892915 v -3.883826 h -0.98691 v -0.475979 l 0.98691,-0.410981 0.44016,-1.393938 h 0.60376 v 1.512932 h 1.99916 v 0.767966 h -1.99916 v 3.841827 a 2.1015506,1.9909107 0 0 0 0.0306,0.349985 q 0.0644,0.340984 0.26494,0.555975 0.29554,0.315986 0.81064,0.315986 a 3.4283457,3.2478543 0 0 0 0.50243,-0.034 3.1612978,2.9948656 0 0 0 0.0327,-0.005 5.6470596,5.34976 0 0 0 0.15094,-0.025 q 0.14355,-0.025 0.24383,-0.052 a 1.5642883,1.4819335 0 0 0 0.0137,-0.004 z m 7.22929,-1.459935 a 5.3916225,5.1077709 0 0 0 0.096,-0.993955 q 0,-1.55493 -0.85181,-2.465889 a 2.7327546,2.5888839 0 0 0 -1.26874,-0.774966 3.5075101,3.3228509 0 0 0 -1.03019,-0.135993 q -1.49568,0 -2.33904,0.88996 a 2.8836947,2.7318774 0 0 0 -0.3536,0.464979 q -0.27339,0.45098 -0.39372,1.028954 a 5.4190661,5.1337697 0 0 0 -0.095,0.992955 5.2216829,4.9467781 0 0 0 0.0654,0.800964 3.861111,3.6578359 0 0 0 0.3251,0.997955 q 0.38949,0.768966 1.10619,1.179947 a 2.9058607,2.7528765 0 0 0 0.66709,0.280988 3.3523479,3.1758575 0 0 0 0.97425,0.129994 4.0532166,3.8398277 0 0 0 0.70721,-0.056 2.7823643,2.6358817 0 0 0 1.63817,-0.840963 q 0.56365,-0.594973 0.75259,-1.498933 z m -5.15413,-0.993955 q 0,1.250944 0.52776,1.905915 a 1.7110063,1.6209273 0 0 0 1.11464,0.621972 2.5923698,2.4558898 0 0 0 0.4391,0.034 q 1.02491,0 1.55584,-0.652971 a 2.2408799,2.1229048 0 0 0 0.34938,-0.642971 q 0.10239,-0.297986 0.14672,-0.66097 a 5.4982305,5.2087663 0 0 0 0.0348,-0.604973 5.2079611,4.9337787 0 0 0 -0.0486,-0.702968 q -0.0549,-0.357984 -0.16994,-0.647971 a 2.1490492,2.0359087 0 0 0 -0.31244,-0.539976 1.7173394,1.626927 0 0 0 -1.06714,-0.603973 2.6324797,2.4938881 0 0 0 -0.50137,-0.043 2.4836507,2.3528944 0 0 0 -0.61854,0.069 1.6624521,1.5749293 0 0 0 -0.92886,0.568974 2.1585489,2.0449083 0 0 0 -0.33566,0.613973 q -0.0982,0.281987 -0.1446,0.627972 a 5.5151189,5.2247656 0 0 0 -0.0412,0.65797 z m 8.12332,-0.21999 v 0.21999 a 6.9010234,6.5377067 0 0 0 0.0348,0.67597 q 0.094,0.857961 0.44966,1.292942 a 1.5146786,1.4349356 0 0 0 0.76842,0.490978 q 0.25649,0.076 0.56998,0.09499 a 3.35657,3.1798573 0 0 0 0.21428,0.007 1.7585049,1.6659253 0 0 0 0.68398,-0.121994 q 0.39476,-0.155993 0.67553,-0.511977 a 2.0793845,1.9699116 0 0 0 0.0401,-0.051 q 0.5056,-0.684969 0.5056,-1.888915 0,-0.800964 -0.21744,-1.357939 a 2.2123807,2.095906 0 0 0 -0.28816,-0.514977 1.6233977,1.537931 0 0 0 -1.18746,-0.640972 2.2461575,2.1279045 0 0 0 -0.23644,-0.012 3.0071912,2.8488722 0 0 0 -0.5626,0.047 q -0.31243,0.056 -0.55309,0.181992 a 1.3795714,1.3069414 0 0 0 -0.41271,0.324985 1.7880596,1.693924 0 0 0 -0.27972,0.482978 q -0.17732,0.45598 -0.20055,1.12895 a 6.6424198,6.2927177 0 0 0 -0.004,0.151993 z"
       id="top_labelLayer"
       stroke="#777777"
       fill="#777777"
       style="fill:#777777;stroke:#777777;stroke-width:0.256841mm"
       vector-effect="non-scaling-stroke" />
    <path
       d="m 3.9381543,98.234229 v 6.711451 h 3.1663143 v 12.7681 H 3.9381543 v 6.71146 H 15.416044 v -3.92866 h 10.290522 v 3.92866 h 10.290523 v -3.92866 h 10.290522 v 3.92866 h 10.290522 v -3.92866 h 10.290522 v 3.92866 h 10.290524 v -3.92866 h 10.290517 v 3.92866 H 98.92759 v -6.71146 h -3.166314 v -12.7681 H 98.92759 V 98.234229 H 87.449696 v 3.928641 H 77.159179 V 98.234229 H 66.868655 v 3.928641 H 56.578133 V 98.234229 H 46.287611 v 3.928641 H 35.997089 V 98.234229 H 25.706566 v 3.928641 H 15.416044 v -3.928641 z"
       id="back_outsideCutPath"
       stroke="#FF0000"
       stroke-width="0.1"
       style="stroke:#ff0000;stroke-width:0.117564"
       vector-effect="non-scaling-stroke" />
    <path
       d="m 49.92843,81.052237 h 0.01689 a 2.0255401,2.2436041 0 0 1 0.04961,-0.0748 q 0.08444,-0.120425 0.220604,-0.289952 l 0.729355,-0.856989 h 0.406375 l -0.915126,1.066269 0.978458,1.436888 h -0.413765 l -0.797963,-1.183184 -0.257547,0.246691 v 0.936493 h -0.337767 v -3.55306 h 0.337767 v 1.883504 q 0,0.126269 -0.01689,0.388158 z m -6.924212,0.959875 h -0.02533 l -0.07177,0.321516 h -0.24487 v -3.553053 h 0.341978 v 0.862835 a 7.1353057,7.9034725 0 0 1 -0.0042,0.267736 q -0.0042,0.134454 -0.01267,0.253708 h 0.01689 a 0.7779172,0.86166557 0 0 1 0.56787,-0.365948 1.168459,1.294252 0 0 1 0.14144,-0.0093 q 0.444375,0 0.691367,0.336717 a 1.0080202,1.1165408 0 0 1 0.176272,0.377635 q 0.04433,0.155497 0.06016,0.341391 a 2.1965341,2.4330069 0 0 1 0.0095,0.235 q 0,0.616144 -0.248047,0.957539 a 0.81063828,0.89790931 0 0 1 -0.576315,0.335545 1.1610705,1.2860678 0 0 1 -0.112941,0.0057 1.0375748,1.1492772 0 0 1 -0.261769,-0.03508 0.90352391,1.0007947 0 0 1 -0.14144,-0.05496 0.75786233,0.83945163 0 0 1 -0.306101,-0.277088 z m 3.887477,0.321516 H 46.63837 l -0.06755,-0.356586 h -0.01689 a 1.4186169,1.5713412 0 0 1 -0.115052,0.142635 q -0.06122,0.0678 -0.123486,0.114575 a 0.63014459,0.69798416 0 0 1 -0.09816,0.06195 0.78952789,0.87452624 0 0 1 -0.163606,0.05612 q -0.07916,0.01872 -0.169939,0.02457 a 1.5400016,1.7057937 0 0 1 -0.08655,0.0024 1.050241,1.163307 0 0 1 -0.213215,-0.0222 q -0.130885,-0.0304 -0.231162,-0.100553 a 0.58897937,0.6523872 0 0 1 -0.08233,-0.06899 0.5625914,0.62315839 0 0 1 -0.169939,-0.328535 0.86130316,0.95402861 0 0 1 -0.02005,-0.21746 q 0,-0.757613 1.094579,-0.795024 l 0.383144,-0.01286 V 80.6782 a 0.9826878,1.0884811 0 0 0 -0.0095,-0.157838 q -0.01055,-0.08067 -0.03378,-0.144975 a 0.38209773,0.42323328 0 0 0 -0.07072,-0.132115 q -0.09183,-0.112234 -0.270202,-0.134452 a 0.84547037,0.93649131 0 0 0 -0.09605,-0.0057 1.1146277,1.2346253 0 0 0 -0.256492,0.03509 q -0.118218,0.03041 -0.245936,0.08885 a 2.2915309,2.5382304 0 0 0 -0.137221,0.0678 l -0.104497,-0.28995 a 1.5780002,1.7478833 0 0 1 0.303994,-0.139127 1.7964926,1.989898 0 0 1 0.06122,-0.01872 1.5843333,1.7548983 0 0 1 0.398987,-0.0573 1.445005,1.6005699 0 0 1 0.220604,0.01755 q 0.112941,0.01987 0.203705,0.0608 a 0.58264625,0.6453723 0 0 1 0.175227,0.120425 0.54148103,0.59977535 0 0 1 0.139329,0.238505 q 0.05489,0.166021 0.05489,0.398682 z m 2.212373,-2.417807 -0.105552,0.321518 a 1.5220577,1.6859182 0 0 0 -0.164661,-0.0608 1.8186586,2.0144501 0 0 0 -0.08233,-0.02221 1.4133394,1.5654956 0 0 0 -0.107663,-0.02221 q -0.05278,-0.0081 -0.09922,-0.0105 a 0.75891786,0.84062081 0 0 0 -0.03061,-0.0011 q -0.611147,0 -0.679756,0.768134 a 1.8904338,2.0939524 0 0 0 -0.0084,0.204605 q 0,0.302807 0.07283,0.513253 a 0.71036401,0.78683978 0 0 0 0.095,0.195252 0.54359206,0.60211364 0 0 0 0.352544,0.23266 0.82752656,0.91661572 0 0 0 0.145662,0.01403 1.4323388,1.5865403 0 0 0 0.394765,-0.06429 1.7690492,1.9594999 0 0 0 0.184716,-0.07015 v 0.335548 q -0.195271,0.111074 -0.47604,0.127438 a 1.876712,2.0787538 0 0 1 -0.095,0.0024 q -0.490817,0 -0.759975,-0.334376 -0.232215,-0.288782 -0.263881,-0.784503 a 2.0688164,2.2915393 0 0 1 -0.0053,-0.162512 1.8883228,2.0916142 0 0 1 0.02955,-0.379975 q 0.03483,-0.211616 0.113997,-0.378804 a 0.9436336,1.0452223 0 0 1 0.129829,-0.211617 0.88663562,0.98208828 0 0 1 0.485539,-0.308657 1.3436751,1.4883314 0 0 1 0.29238,-0.03391 1.5442237,1.7104705 0 0 1 0.326156,0.03858 1.7078289,1.8916893 0 0 1 0.095,0.02572 q 0.09711,0.0304 0.160429,0.06663 z m -5.813804,0.285274 a 0.4549285,0.50390483 0 0 0 -0.13194,0.128607 q -0.135107,0.195248 -0.151995,0.626667 a 2.6366853,2.9205437 0 0 0 -0.0021,0.123929 2.2630319,2.5066634 0 0 0 0.01055,0.258384 q 0.02533,0.26189 0.103441,0.420896 a 0.51614858,0.5717157 0 0 0 0.04433,0.07481 0.49609374,0.54950177 0 0 0 0.25227,0.188229 q 0.111885,0.03977 0.257547,0.03977 a 0.681865,0.75527265 0 0 0 0.19316,-0.02922 0.49187165,0.54482515 0 0 0 0.276547,-0.225648 q 0.11083,-0.182388 0.14144,-0.478183 a 1.9611534,2.1722858 0 0 0 0.01267,-0.253705 q 0,-0.462986 -0.138273,-0.702663 a 0.567869,0.62900415 0 0 0 -0.01583,-0.02573 0.49926029,0.55300922 0 0 0 -0.317712,-0.223305 0.79163894,0.87686455 0 0 0 -0.160439,-0.01639 q -0.227993,0 -0.373655,0.09353 z m 3.259443,1.128234 v -0.226817 l -0.341979,0.01636 q -0.408487,0.01638 -0.588981,0.1403 a 0.36520943,0.40452686 0 0 0 -0.174164,0.293454 0.54042552,0.5986062 0 0 0 -0.0063,0.09354 q 0,0.20577 0.112944,0.313334 0.09711,0.09235 0.260714,0.105212 a 0.76947305,0.85231231 0 0 0 0.05383,0.0011 0.94257808,1.0440532 0 0 0 0.20266,-0.02221 q 0.142496,-0.03509 0.246982,-0.122762 a 0.57103555,0.63251162 0 0 0 0.05172,-0.04909 q 0.181539,-0.192911 0.182595,-0.538979 a 1.0903507,1.2077349 0 0 0 0,-0.0034 z"
       id="back_labelLayer"
       stroke="#777777"
       fill="#777777"
       style="fill:#777777;stroke:#777777;stroke-width:0.277721mm"
       vector-effect="non-scaling-stroke" />
    <path
       d="m 72.227087,33.798881 v 6.702186 h -2.999541 v 12.750495 h 2.999541 v 6.702183 h 3.124524 v -3.923226 h 9.748521 v 3.923226 h 9.74851 v -3.923226 h 9.748478 v 3.923226 h 9.74851 v -3.923226 h 9.74851 v 3.923226 h 3.12452 v -6.702183 h 2.99956 V 40.501067 h -2.99956 v -6.702186 h -3.12452 v 3.923229 h -9.74851 v -3.923229 h -9.74851 v 3.923229 h -9.748478 v -3.923229 h -9.74851 v 3.923229 h -9.748521 v -3.923229 z"
       id="right_outsideCutPath"
       stroke="#FF0000"
       stroke-width="0.1"
       style="stroke:#ff0000;stroke-width:0.114347"
       vector-effect="non-scaling-stroke" />
    <path
       d="m 102.32076,49.839306 h -0.32399 v -1.680962 a 0.91597189,1.1117418 0 0 0 -0.01,-0.17356 q -0.025,-0.190549 -0.10899,-0.29978 a 0.36598876,0.44421122 0 0 0 -0.15,-0.116514 q -0.094,-0.04007 -0.223,-0.04007 -0.22099,0 -0.36399,0.09468 a 0.45398606,0.55101611 0 0 0 -0.12899,0.127442 q -0.15599,0.223316 -0.15599,0.73064 v 1.358121 h -0.324 v -3.688411 h 0.324 v 1.116598 a 2.9169104,3.5403392 0 0 1 -0.002,0.135935 q -0.002,0.06311 -0.006,0.118941 a 1.267961,1.5389614 0 0 1 -0.007,0.07886 h 0.019 a 0.6479801,0.78647233 0 0 1 0.22699,-0.264588 0.79097573,0.96003026 0 0 1 0.046,-0.03036 0.83197446,1.0097916 0 0 1 0.27298,-0.0983 1.0519677,1.2768039 0 0 1 0.13,-0.0098 q 0.258,0 0.43199,0.0983 a 0.58398207,0.70879605 0 0 1 0.157,0.128653 q 0.19599,0.225744 0.19599,0.719719 z m -2.967908,-2.598514 h 0.739978 v 0.250021 l -0.396988,0.05582 q 0.046,0.0704 0.084,0.175986 a 0.99996932,1.2136918 0 0 1 0.014,0.04126 0.62398085,0.75734371 0 0 1 0.037,0.180842 0.80097541,0.97216718 0 0 1 0.006,0.121367 q 0,0.382313 -0.215,0.609274 -0.19299,0.205114 -0.51698,0.225745 a 1.4079568,1.7088781 0 0 1 -0.073,0.0024 1.041968,1.2646671 0 0 1 -0.12,-0.0084 0.87997298,1.0680488 0 0 1 -0.059,-0.01087 q -0.20699,0.132293 -0.20699,0.333764 0,0.10681 0.072,0.157782 0.058,0.04126 0.18299,0.04976 a 1.2329622,1.496482 0 0 0 0.065,0.0011 h 0.37898 a 1.3269593,1.6105689 0 0 1 0.201,0.01821 q 0.20499,0.03762 0.33298,0.160209 a 0.47398546,0.57528994 0 0 1 0.175998,0.366533 0.71197815,0.86414862 0 0 1 0.01,0.149285 0.70197845,0.85201171 0 0 1 -0.04,0.294928 q -0.064,0.214824 -0.233988,0.354398 a 0.77097634,0.93575644 0 0 1 -0.011,0.0084 0.97197016,1.1797083 0 0 1 -0.24999,0.138362 q -0.124,0.04612 -0.27499,0.06798 a 2.5699212,3.1191882 0 0 1 -0.30699,0.02063 1.8169442,2.2052779 0 0 1 -0.24299,-0.0182 q -0.248,-0.04126 -0.40399,-0.171133 a 0.51698413,0.6274787 0 0 1 -0.167,-0.219679 q -0.053,-0.120156 -0.06,-0.271866 a 0.68497898,0.83137894 0 0 1 -10e-4,-0.0449 0.49598477,0.60199117 0 0 1 0.125,-0.410229 0.56598263,0.68694957 0 0 1 0.19499,-0.171131 0.80197539,0.97338088 0 0 1 0.157,-0.06311 q -0.082,-0.0449 -0.138,-0.139575 a 0.30099077,0.36532126 0 0 1 -0.055,-0.197832 0.37198858,0.45149338 0 0 1 -10e-4,-0.02305 q 0,-0.142001 0.063,-0.248806 0.047,-0.0801 0.136,-0.156565 a 1.0179687,1.2355386 0 0 1 0.061,-0.04976 0.56798257,0.68937697 0 0 1 -0.247,-0.239096 0.70397839,0.85443908 0 0 1 -0.023,-0.04249 0.66997943,0.81317355 0 0 1 -0.10299,-0.392024 0.8179749,0.99279983 0 0 1 -0.002,-0.06311 0.93697125,1.1372292 0 0 1 0.025,-0.26944 0.61598109,0.74763418 0 0 1 0.18599,-0.388381 0.68897886,0.83623369 0 0 1 0.264,-0.177199 q 0.14699,-0.05462 0.33399,-0.05462 a 1.2429619,1.5086192 0 0 1 0.16399,0.01336 0.94697094,1.1493661 0 0 1 0.13899,0.03399 z m 4.618858,2.273245 v 0.30221 q -0.048,0.0267 -0.136,0.04613 a 1.2139628,1.4734221 0 0 1 -0.02,0.005 q -0.095,0.01821 -0.17299,0.01941 a 0.8309745,1.0085781 0 0 1 -0.011,0 0.846974,1.0279971 0 0 1 -0.24999,-0.04007 q -0.371,-0.139573 -0.371,-0.753702 v -1.546268 h -0.30699 v -0.189325 l 0.30699,-0.163848 0.13601,-0.554656 h 0.18799 v 0.60199 h 0.62098 v 0.305851 h -0.62098 v 1.529247 q 0,0.165063 0.045,0.276722 a 0.31399036,0.38109924 0 0 0 0.047,0.08373 0.30099077,0.36532126 0 0 0 0.18499,0.120154 0.43298671,0.52552859 0 0 0 0.067,0.0061 1.0649673,1.292582 0 0 0 0.15599,-0.01455 0.98096989,1.1906317 0 0 0 0.01,-0.0011 q 0.076,-0.01455 0.122,-0.03036 a 0.48798501,0.59228162 0 0 0 0.005,-0.0024 z m -7.042778,-2.291451 -0.045,0.365323 q -0.13299,-0.03639 -0.23499,-0.03639 a 0.56198274,0.68209481 0 0 0 -0.41499,0.218463 0.76797644,0.93211534 0 0 0 -0.029,0.03762 0.73997728,0.89813197 0 0 0 -0.179,0.504894 0.9839698,1.1942728 0 0 0 -0.005,0.133505 v 1.393321 h -0.32498 v -2.598507 h 0.26799 l 0.037,0.481838 h 0.016 a 1.0949665,1.3289926 0 0 1 0.122,-0.212398 0.83597434,1.0146465 0 0 1 0.16499,-0.178413 0.64598018,0.78404494 0 0 1 0.369,-0.138364 1.4879543,1.8059735 0 0 1 0.13299,0.0074 1.0859667,1.3180694 0 0 1 0.123,0.02183 z m 0.72397,0.01821 v 2.598515 h -0.32399 v -2.598518 z m 1.58796,2.539044 h -0.38799 q -0.16199,0 -0.271,0.06916 a 0.37998834,0.4612029 0 0 0 -0.073,0.05948 0.34198951,0.41508263 0 0 0 -0.112,0.234244 0.51898407,0.62990608 0 0 0 -0.011,0.132291 0.32598999,0.39566354 0 0 0 0.021,0.146857 q 0.031,0.09467 0.106,0.158994 a 0.37998834,0.4612029 0 0 0 0.019,0.01455 0.51898407,0.62990608 0 0 0 0.128,0.06674 q 0.121,0.04249 0.29199,0.04249 0.36499,0 0.55998,-0.117726 a 0.53898344,0.6541799 0 0 0 0.045,-0.03035 0.47298549,0.57407625 0 0 0 0.10899,-0.111669 0.35398913,0.4296469 0 0 0 0.087,-0.290073 0.43898652,0.53281073 0 0 0 -0.008,-0.105592 q -0.01,-0.06068 -0.033,-0.106805 a 0.20399373,0.24759312 0 0 0 -0.066,-0.0801 0.30799056,0.37381707 0 0 0 -0.073,-0.03886 q -0.116,-0.0437 -0.33199,-0.0437 z m -0.67898,-1.706452 a 0.63298058,0.76826693 0 0 0 0.013,0.161421 q 0.027,0.155352 0.11301,0.251234 a 0.41898715,0.50853691 0 0 0 0.16899,0.110444 q 0.082,0.02913 0.185,0.02913 0.37498,0 0.45398,-0.348328 a 0.65697984,0.79739557 0 0 0 0.021,-0.211184 0.69697861,0.84594322 0 0 0 -0.024,-0.231814 q -0.083,-0.353186 -0.45698,-0.353186 -0.175,0 -0.28799,0.0874 a 0.37298855,0.45270706 0 0 0 -0.063,0.06191 0.38898807,0.47212615 0 0 0 -0.095,0.191763 q -0.028,0.109235 -0.028,0.251235 z m -1.25597,-1.608141 a 0.35898898,0.43571538 0 0 0 -0.004,0.0716 q 0,0.133506 0.054,0.197829 a 0.18199441,0.22089191 0 0 0 0.066,0.05099 0.20599368,0.25002052 0 0 0 0.071,0.01455 q 0.078,0 0.13499,-0.06554 a 0.15799515,0.1917633 0 0 0 0.031,-0.04855 q 0.014,-0.03277 0.02,-0.07403 a 0.33498972,0.40658676 0 0 0 0.006,-0.07523 0.37098862,0.45027969 0 0 0 -0.002,-0.04248 q -0.003,-0.03885 -0.012,-0.0704 a 0.16399498,0.19904544 0 0 0 -0.043,-0.08374 q -0.057,-0.06311 -0.13499,-0.06311 a 0.24699243,0.2997819 0 0 0 -0.016,0 0.18699426,0.22696038 0 0 0 -0.121,0.06191 q -0.038,0.04491 -0.05,0.126226 z"
       id="right_labelLayer"
       stroke="#777777"
       fill="#777777"
       style="fill:#777777;stroke:#777777;stroke-width:0.275415mm"
       vector-effect="non-scaling-stroke" />
    <path
       d="m 147.18027,3.762804 v 3.1248599 h -3.16657 v 9.7495631 h 3.16657 v 9.749562 h -3.16657 v 9.749564 h 3.16657 v 9.749562 h -3.16657 v 9.749563 h 3.16657 v 3.12486 h 8.31226 v 2.999864 h 10.29138 v -2.999864 h 10.29137 v 2.999864 h 10.29136 v -2.999864 h 10.29138 v 2.999864 h 10.29137 v -2.999864 h 10.29137 v 2.999864 h 10.29138 v -2.999864 h 8.31225 v -3.12486 h 3.16658 v -9.749563 h -3.16658 v -9.749562 h 3.16658 v -9.749564 h -3.16658 v -9.749562 h 3.16658 V 6.8876639 h -3.16658 V 3.762804 h -8.31225 V 0.76293863 H 217.24076 V 3.762804 H 206.94939 V 0.76293863 H 196.65802 V 3.762804 H 186.36664 V 0.76293863 H 176.07528 V 3.762804 H 165.78391 V 0.76293863 H 155.49253 V 3.762804 Z"
       id="bottom_outsideCutPath"
       stroke="#FF0000"
       stroke-width="0.1"
       style="stroke:#ff0000;stroke-width:0.102736"
       vector-effect="non-scaling-stroke" />
    <path
       d="m 212.69567,35.836366 h -1.04392 v -4.24781 a 3.0789671,2.9168691 0 0 0 -0.0306,-0.42798 q -0.0349,-0.218991 -0.10766,-0.395982 a 1.2613526,1.1949464 0 0 0 -0.21322,-0.345985 q -0.30821,-0.340985 -0.91408,-0.383983 a 2.4224304,2.2948971 0 0 0 -0.18049,-0.006 q -0.97425,0 -1.43974,0.529976 -0.46549,0.529977 -0.46549,1.631928 v 3.645836 h -1.04391 v -4.24781 a 3.0789671,2.9168691 0 0 0 -0.0306,-0.42798 q -0.0349,-0.218991 -0.10766,-0.395982 a 1.2613526,1.1949464 0 0 0 -0.21322,-0.345985 q -0.35255,-0.389983 -1.10091,-0.389983 a 2.59237,2.4558898 0 0 0 -0.53621,0.049 q -0.33038,0.066 -0.57737,0.22199 a 1.3679607,1.2959418 0 0 0 -0.32299,0.285987 1.7500608,1.6579257 0 0 0 -0.25966,0.466979 q -0.16783,0.45098 -0.19211,1.12695 a 7.2672912,6.8846912 0 0 0 -0.004,0.23199 v 3.424846 h -1.04391 v -6.528707 h 0.8497 l 0.16888,0.89296 h 0.0506 q 0.29554,-0.475979 0.8328,-0.743967 a 2.4783733,2.3478947 0 0 1 0.97953,-0.259988 2.9934696,2.8358728 0 0 1 0.22483,-0.008 3.4177907,3.2378547 0 0 1 0.76947,0.076 q 0.47288,0.102996 0.80326,0.348985 a 1.7817266,1.6879243 0 0 1 0.54043,0.68297 h 0.0496 a 2.1796597,2.0649074 0 0 1 0.8212,-0.771966 2.6187581,2.4808887 0 0 1 0.0718,-0.038 2.6419796,2.5028877 0 0 1 0.96897,-0.279987 3.2942943,3.12086 0 0 1 0.36416,-0.018 3.6278403,3.4368458 0 0 1 0.65865,0.053 q 0.36522,0.064 0.65125,0.204991 a 1.7205061,1.6299269 0 0 1 0.44122,0.310987 1.7975595,1.7029236 0 0 1 0.38632,0.597972 q 0.19528,0.495979 0.19528,1.221946 z m -41.32276,-0.839963 h -0.076 l -0.21955,0.839963 h -0.74838 v -9.268584 h 1.04392 v 2.250898 a 21.761764,20.616075 0 0 1 -0.0126,0.696969 q -0.0116,0.328986 -0.0349,0.622972 a 13.007237,12.322447 0 0 1 -0.003,0.039 h 0.0506 a 2.3728208,2.2478991 0 0 1 1.73212,-0.952958 3.5645087,3.3768485 0 0 1 0.43065,-0.024 3.1897972,3.0218644 0 0 1 0.8972,0.112995 2.387598,2.2618985 0 0 1 1.21174,0.764965 3.0758006,2.9138693 0 0 1 0.53937,0.983956 q 0.21217,0.648971 0.21217,1.502932 a 6.1199353,5.7977399 0 0 1 -0.0813,0.975956 q -0.0929,0.519978 -0.29555,0.936959 a 2.9333046,2.7788753 0 0 1 -0.38104,0.585974 q -0.75681,0.890959 -2.10261,0.890959 a 3.1655202,2.9988655 0 0 1 -0.79586,-0.092 2.7549209,2.6098829 0 0 1 -0.43383,-0.142993 2.3116003,2.1899017 0 0 1 -0.93308,-0.723968 z m 17.79404,0.024 v 0.755966 q -0.15305,0.07 -0.43803,0.117995 a 3.9054434,3.699834 0 0 1 -0.0623,0.01 4.5239812,4.2858077 0 0 1 -0.29449,0.037 q -0.13932,0.012 -0.26387,0.014 a 2.676812,2.5358862 0 0 1 -0.0359,0 2.7264217,2.5828842 0 0 1 -0.80326,-0.101995 q -1.19591,-0.349984 -1.19591,-1.893915 v -3.883826 h -0.98692 v -0.475979 l 0.98692,-0.410981 0.44016,-1.393938 h 0.60375 v 1.512933 h 1.99917 v 0.767965 h -1.99917 v 3.842828 a 2.1015508,1.9909106 0 0 0 0.0306,0.348984 q 0.0644,0.341985 0.26494,0.555976 0.29555,0.315985 0.81065,0.315985 a 3.4283459,3.2478543 0 0 0 0.50242,-0.034 3.1612981,2.9948656 0 0 0 0.0328,-0.005 5.64706,5.34976 0 0 0 0.15094,-0.024 q 0.14355,-0.026 0.24382,-0.052 a 1.5642884,1.4819336 0 0 0 0.0137,-0.004 z m 4.54615,0 v 0.755966 q -0.15305,0.07 -0.43803,0.117995 a 3.9054434,3.699834 0 0 1 -0.0623,0.01 4.5239812,4.2858077 0 0 1 -0.29449,0.037 q -0.13932,0.012 -0.26388,0.014 a 2.676812,2.5358862 0 0 1 -0.0359,0 2.7264217,2.5828842 0 0 1 -0.80325,-0.101995 q -1.19591,-0.349984 -1.19591,-1.893915 v -3.883826 h -0.98692 v -0.475979 l 0.98692,-0.410981 0.44015,-1.393938 h 0.60376 v 1.512933 h 1.99916 v 0.767965 h -1.99916 v 3.842828 a 2.1015508,1.9909106 0 0 0 0.0306,0.348984 q 0.0644,0.341985 0.26494,0.555976 0.29555,0.315985 0.81064,0.315985 a 3.4283459,3.2478543 0 0 0 0.50243,-0.034 3.1612981,2.9948656 0 0 0 0.0328,-0.005 5.64706,5.34976 0 0 0 0.14988,-0.024 q 0.1446,-0.026 0.24488,-0.052 a 1.5642884,1.4819336 0 0 0 0.0137,-0.004 z m -9.64117,-1.460934 a 5.3916229,5.1077709 0 0 0 0.0961,-0.993956 q 0,-1.55393 -0.85181,-2.465888 a 2.7327549,2.5888838 0 0 0 -1.26874,-0.774966 3.5075104,3.322851 0 0 0 -1.02914,-0.135994 q -1.49673,0 -2.33904,0.88996 a 2.883695,2.7318774 0 0 0 -0.35466,0.46598 q -0.27232,0.449979 -0.39266,1.027953 a 5.4190666,5.1337697 0 0 0 -0.096,0.992955 5.2216834,4.946778 0 0 0 0.0665,0.801965 3.8611113,3.6578359 0 0 0 0.32405,0.996955 q 0.38949,0.768965 1.10619,1.179947 a 2.905861,2.7528765 0 0 0 0.66709,0.280988 3.3523482,3.1758575 0 0 0 0.97425,0.129993 4.0532169,3.8398278 0 0 0 0.70826,-0.056 2.7823645,2.6358818 0 0 0 1.63711,-0.840962 q 0.56365,-0.594974 0.75259,-1.498932 z m 16.87046,0 a 5.3916229,5.1077709 0 0 0 0.096,-0.993956 q 0,-1.55393 -0.85181,-2.465888 a 2.7327549,2.5888838 0 0 0 -1.26874,-0.774966 3.5075104,3.322851 0 0 0 -1.0302,-0.135994 q -1.49567,0 -2.33903,0.88996 a 2.883695,2.7318774 0 0 0 -0.3536,0.46598 q -0.27339,0.449979 -0.39372,1.027953 a 5.4190666,5.1337697 0 0 0 -0.095,0.992955 5.2216834,4.946778 0 0 0 0.0654,0.801965 3.8611113,3.6578359 0 0 0 0.32405,0.996955 q 0.39055,0.768965 1.10725,1.179947 a 2.905861,2.7528765 0 0 0 0.66709,0.280988 3.3523482,3.1758575 0 0 0 0.97425,0.129993 4.0532169,3.8398278 0 0 0 0.7072,-0.056 2.7823645,2.6358818 0 0 0 1.63817,-0.840962 q 0.56365,-0.594974 0.75259,-1.498932 z m -22.02458,-0.993956 q 0,1.250945 0.52776,1.906915 a 1.7110064,1.6209273 0 0 0 1.11463,0.620972 2.59237,2.4558898 0 0 0 0.4391,0.034 q 1.02492,0 1.55584,-0.651971 a 2.24088,2.1229047 0 0 0 0.34939,-0.643971 q 0.10241,-0.297987 0.14671,-0.66097 a 5.498231,5.2087664 0 0 0 0.0359,-0.604974 5.2079615,4.9337786 0 0 0 -0.0496,-0.702968 q -0.0549,-0.357984 -0.16995,-0.647971 a 2.1490494,2.0359086 0 0 0 -0.31244,-0.539976 1.7173396,1.626927 0 0 0 -1.06712,-0.602972 2.6324799,2.4938881 0 0 0 -0.50138,-0.043 2.4836509,2.3528945 0 0 0 -0.61854,0.068 1.6624522,1.5749293 0 0 0 -0.92886,0.568973 2.1585491,2.0449083 0 0 0 -0.33461,0.613973 q -0.0992,0.282987 -0.14565,0.627972 a 5.5151193,5.2247656 0 0 0 -0.0411,0.65797 z m 16.87046,0 q 0,1.250945 0.52776,1.906915 a 1.7110064,1.6209273 0 0 0 1.11464,0.620972 2.59237,2.4558898 0 0 0 0.4391,0.034 q 1.02491,0 1.55583,-0.651971 a 2.24088,2.1229047 0 0 0 0.34833,-0.643971 q 0.10345,-0.297987 0.14777,-0.66097 a 5.498231,5.2087664 0 0 0 0.0349,-0.604974 5.2079615,4.9337786 0 0 0 -0.0486,-0.702968 q -0.0549,-0.357984 -0.16994,-0.647971 a 2.1490494,2.0359086 0 0 0 -0.31244,-0.539976 1.7173396,1.626927 0 0 0 -1.06712,-0.602972 2.6324799,2.4938881 0 0 0 -0.50138,-0.043 2.4836509,2.3528945 0 0 0 -0.61854,0.068 1.6624522,1.5749293 0 0 0 -0.92886,0.568973 2.1585491,2.0449083 0 0 0 -0.33566,0.613973 q -0.0981,0.282987 -0.14461,0.627972 a 5.5151193,5.2247656 0 0 0 -0.0411,0.65797 z m -22.40353,-2.536886 a 2.9333046,2.7788753 0 0 0 -0.56787,0.048 q -0.32405,0.061 -0.56999,0.196991 a 1.3880157,1.314941 0 0 0 -0.4032,0.335985 q -0.41377,0.509977 -0.46444,1.633927 a 8.0420467,7.6186582 0 0 0 -0.006,0.321985 6.901024,6.5377067 0 0 0 0.0337,0.67597 q 0.0939,0.857961 0.44965,1.292942 a 1.5146787,1.4349356 0 0 0 0.76843,0.490978 q 0.25649,0.077 0.56997,0.096 a 3.3565703,3.1798574 0 0 0 0.21534,0.006 2.0804402,1.9709116 0 0 0 0.59109,-0.075 1.5009569,1.4219362 0 0 0 0.84231,-0.588974 2.3960423,2.2698982 0 0 0 0.2966,-0.607973 q 0.17521,-0.542975 0.17521,-1.300941 0,-1.208946 -0.42431,-1.833918 a 1.7310613,1.6399264 0 0 0 -0.0475,-0.067 1.5220674,1.4419353 0 0 0 -0.96897,-0.580974 2.4139863,2.2868974 0 0 0 -0.48977,-0.044 z"
       id="bottom_labelLayer"
       stroke="#777777"
       fill="#777777"
       style="fill:#777777;stroke:#777777;stroke-width:0.256841mm"
       vector-effect="non-scaling-stroke" />
    <rect
       style="fill:#000000;fill-opacity:0;fill-rule:evenodd;stroke:#000000;stroke-width:0.915402"
       id="rect12716"
       width="49.856289"
       height="14.6338"
       x="75.110092"
       y="39.445099"
       ry="0" />
    <ellipse
       style="fill:#000000;fill-opacity:0;fill-rule:evenodd;stroke:#000000;stroke-width:0.61642"
       id="path13605"
       cx="188.63705"
       cy="94.842056"
       rx="11.489318"
       ry="9.8217459" />
    <rect
       style="fill:#000000;fill-opacity:0;fill-rule:evenodd;stroke:#000000;stroke-width:0.61642"
       id="rect13629"
       width="7.9831705"
       height="4.3099561"
       x="205.54781"
       y="72.045074" />
    <ellipse
       style="fill:#000000;fill-opacity:0;fill-rule:evenodd;stroke:#000000;stroke-width:0.61642"
       id="path13765"
       cx="178.19186"
       cy="19.149681"
       rx="2.32512"
       ry="2.0988839" />
    <ellipse
       style="display:inline;fill:#000000;fill-opacity:0;fill-rule:evenodd;stroke:#000000;stroke-width:0.61642"
       id="path13765-8"
       cx="177.42293"
       cy="31.611721"
       rx="2.32512"
       ry="2.0988839" />
    <ellipse
       style="display:inline;fill:#000000;fill-opacity:0;fill-rule:evenodd;stroke:#000000;stroke-width:0.61642"
       id="path13765-0"
       cx="192.23418"
       cy="31.460188"
       rx="2.32512"
       ry="2.0988839" />
    <ellipse
       style="display:inline;fill:#000000;fill-opacity:0;fill-rule:evenodd;stroke:#000000;stroke-width:0.61642"
       id="path13765-5"
       cx="205.07593"
       cy="31.540821"
       rx="2.32512"
       ry="2.0988839" />
    <ellipse
       style="display:inline;fill:#000000;fill-opacity:0;fill-rule:evenodd;stroke:#000000;stroke-width:0.61642"
       id="path13765-69"
       cx="205.62122"
       cy="45.189186"
       rx="2.32512"
       ry="2.0988839" />
    <ellipse
       style="display:inline;fill:#000000;fill-opacity:0;fill-rule:evenodd;stroke:#000000;stroke-width:0.61642"
       id="path13765-69-1"
       cx="191.00262"
       cy="45.149189"
       rx="2.32512"
       ry="2.0988839" />
    <ellipse
       style="display:inline;fill:#000000;fill-opacity:0;fill-rule:evenodd;stroke:#000000;stroke-width:0.61642"
       id="path13765-6"
       cx="191.91965"
       cy="19.116486"
       rx="2.32512"
       ry="2.0988839" />
    <ellipse
       style="display:inline;fill:#000000;fill-opacity:0;fill-rule:evenodd;stroke:#000000;stroke-width:0.61642"
       id="path13765-68"
       cx="205.54636"
       cy="18.992033"
       rx="2.32512"
       ry="2.0988839" />
    <ellipse
       style="display:inline;fill:#000000;fill-opacity:0;fill-rule:evenodd;stroke:#000000;stroke-width:0.61642"
       id="path13765-69-10"
       cx="176.98589"
       cy="45.469692"
       rx="2.32512"
       ry="2.0988839" />
    <rect
       style="fill:#000000;fill-opacity:0;fill-rule:evenodd;stroke:#000000;stroke-width:0.587524"
       id="rect14000"
       width="11.861957"
       height="4.0111361"
       x="49.033047"
       y="50.371044" />
    <rect
       style="fill:#000000;fill-opacity:0;fill-rule:evenodd;stroke:#000000;stroke-width:0.61642"
       id="rect14104"
       width="27.810242"
       height="6.1009464"
       x="200.27354"
       y="109.80553" />
    <rect
       style="fill:#000000;fill-opacity:0;fill-rule:evenodd;stroke:#000000;stroke-width:0.52842"
       id="rect14106"
       width="52.737148"
       height="4.8209963"
       x="12.043185"
       y="82.904808" />
    <rect
       style="fill:#000000;fill-opacity:0;fill-rule:evenodd;stroke:#000000;stroke-width:0.600001"
       id="rect14210"
       width="16.937233"
       height="2.5860486"
       x="27.090235"
       y="52.345612" />
  </g>
</svg>
