<?xml version="1.0" encoding="UTF-8" standalone="no"?>
<svg
   width="247mm"
   height="125mm"
   viewBox="0 0 247 125"
   version="1.1"
   preserveAspectRatio="xMidYMid meet"
   id="svg15"
   sodipodi:docname="DieboxDruck.svg"
   inkscape:version="1.1 (c68e22c387, 2021-05-23)"
   xmlns:inkscape="http://www.inkscape.org/namespaces/inkscape"
   xmlns:sodipodi="http://sodipodi.sourceforge.net/DTD/sodipodi-0.dtd"
   xmlns="http://www.w3.org/2000/svg"
   xmlns:svg="http://www.w3.org/2000/svg">
  <defs
     id="defs19" />
  <sodipodi:namedview
     id="namedview17"
     pagecolor="#ffffff"
     bordercolor="#666666"
     borderopacity="1.0"
     inkscape:pageshadow="2"
     inkscape:pageopacity="0.0"
     inkscape:pagecheckerboard="0"
     inkscape:document-units="mm"
     showgrid="false"
     showguides="true"
     inkscape:guide-bbox="true"
     inkscape:zoom="1.4142136"
     inkscape:rotation="1"
     inkscape:cx="535.3072"
     inkscape:cy="300.76973"
     inkscape:window-width="1920"
     inkscape:window-height="1017"
     inkscape:window-x="-8"
     inkscape:window-y="-8"
     inkscape:window-maximized="1"
     inkscape:current-layer="svgGroup">
    <sodipodi:guide
       position="-3.1358932,9.5238403"
       orientation="1,0"
       id="guide13563" />
  </sodipodi:namedview>
  <g
     id="svgGroup"
     stroke-linecap="round"
     fill-rule="evenodd"
     font-size="12px"
     stroke="#000"
     stroke-width="0.25mm"
     fill="none"
     style="display:inline;fill:none;stroke:#000000;stroke-width:0.25mm"
     transform="translate(2.6396278,0.29329203)"
     inkscape:groupmode="layer">
    <path
       d="m 4.137035,64.60049 v 7.040358 H 7.3424171 V 85.034693 H 4.137035 v 7.040358 h 11.61951 v -4.121182 h 10.417492 v 4.121182 h 10.417494 v -4.121182 h 10.417496 v 4.121182 h 10.417488 v -4.121182 h 10.417498 v 4.121182 h 10.417488 v -4.121182 h 10.417487 v 4.121182 H 100.29851 V 85.034693 H 97.093117 V 71.640848 h 3.205393 V 64.60049 H 88.678988 v 4.121185 H 78.261501 V 64.60049 H 67.844013 v 4.121185 H 57.426515 V 64.60049 H 47.009027 v 4.121185 H 36.591531 V 64.60049 H 26.174037 v 4.121185 H 15.756545 V 64.60049 Z"
       id="front_outsideCutPath"
       stroke="#FF0000"
       stroke-width="0.1"
       style="stroke:#ff0000;stroke-width:0.121154"
       vector-effect="non-scaling-stroke" />
    <path
       d="m 54.072401,112.61093 h -0.351827 v -1.67461 a 0.99465725,1.1075365 0 0 0 -0.012,-0.17414 q -0.0272,-0.18859 -0.11727,-0.29863 a 0.39742855,0.44253099 0 0 0 -0.162877,-0.11485 q -0.10207,-0.0413 -0.24215,-0.0413 -0.364857,0 -0.535337,0.22006 -0.1694,0.22006 -0.1694,0.72547 v 1.35784 h -0.351827 v -2.5887 h 0.286677 l 0.0565,0.35429 h 0.0173 a 0.71341683,0.79437943 0 0 1 0.27906,-0.28295 0.85783758,0.95518987 0 0 1 0.0239,-0.0133 0.95339418,1.0615907 0 0 1 0.339867,-0.1004 1.1531944,1.2840654 0 0 1 0.0955,-0.004 q 0.277977,0 0.464747,0.0992 a 0.63306242,0.70490595 0 0 1 0.16723,0.12696 q 0.160707,0.17048 0.199797,0.49932 a 1.5365066,1.7108781 0 0 1 0.012,0.22131 z m -6.762801,-2.5887 v 0.30469 h -0.591807 v 2.28401 h -0.352907 v -2.28401 h -0.414797 v -0.17653 l 0.414797,-0.14269 v -0.14386 a 1.4268337,1.5887587 0 0 1 0.0337,-0.36031 q 0.10316,-0.49089 0.524477,-0.57554 a 1.0695823,1.1909645 0 0 1 0.191117,-0.0182 1.1336487,1.2623016 0 0 1 0.1607,0.0132 q 0.0771,0.0133 0.16397,0.0363 a 2.279242,2.5379033 0 0 1 0.1075,0.0338 l -0.0912,0.31317 a 1.70916,1.9031252 0 0 0 -0.13247,-0.0413 q -0.0673,-0.0182 -0.12596,-0.0252 a 0.75685165,0.84274346 0 0 0 -0.089,-0.006 0.47452535,0.52837716 0 0 0 -0.114017,0.0145 0.30512957,0.33975741 0 0 0 -0.18134,0.133 0.40720138,0.45341291 0 0 0 -0.0532,0.12091 q -0.0358,0.11729 -0.0413,0.29382 a 1.6624675,1.8511338 0 0 0 0,0.0581 v 0.16805 z m 8.554482,2.26463 v 0.29987 q -0.051,0.0276 -0.14659,0.0472 a 1.3182466,1.4678487 0 0 1 -0.0217,0.003 q -0.10425,0.0194 -0.187857,0.0207 a 0.90235827,1.004763 0 0 1 -0.012,0 0.9197322,1.0241086 0 0 1 -0.27148,-0.0413 q -0.403937,-0.13785 -0.403937,-0.75088 v -1.53919 h -0.332287 v -0.1886 l 0.332287,-0.16324 0.14876,-0.55255 h 0.204147 v 0.59972 h 0.674317 v 0.30467 h -0.674317 v 1.52348 q 0,0.16446 0.0489,0.27447 a 0.34096329,0.37965774 0 0 0 0.051,0.0847 0.32684698,0.36393943 0 0 0 0.20089,0.11849 0.47018187,0.52354076 0 0 0 0.0717,0.006 1.1564519,1.2876927 0 0 0 0.169397,-0.0134 1.0652389,1.1861284 0 0 0 0.0109,-0.002 q 0.0836,-0.0145 0.13356,-0.0303 a 0.52990474,0.59004135 0 0 0 0.004,-0.001 z m -6.792121,-2.28396 -0.0489,0.36392 q -0.14442,-0.035 -0.25518,-0.035 a 0.61025914,0.67951483 0 0 0 -0.450637,0.21644 0.83394844,0.92858965 0 0 0 -0.0314,0.0387 0.80354407,0.89473481 0 0 0 -0.194357,0.503 1.0684964,1.1897554 0 0 0 -0.006,0.13177 v 1.38928 h -0.35182 v -2.58869 h 0.29101 l 0.0402,0.48 h 0.0163 a 1.189028,1.3239657 0 0 1 0.133567,-0.21158 0.90778762,1.0108085 0 0 1 0.17916,-0.17897 0.70147226,0.7810793 0 0 1 0.400697,-0.13664 1.6157752,1.7991423 0 0 1 0.14442,0.007 1.1792552,1.3130837 0 0 1 0.13356,0.0206 z m 2.408465,1.70482 a 1.8188329,2.0252444 0 0 0 0.0325,-0.39418 q 0,-0.61542 -0.287747,-0.97692 a 0.92190394,1.0265268 0 0 0 -0.42784,-0.30713 1.1825129,1.3167112 0 0 0 -0.347477,-0.0545 1.3671107,1.5222582 0 0 0 -0.245407,0.023 0.93167677,1.0374087 0 0 0 -0.542927,0.33006 0.97293984,1.0833545 0 0 0 -0.11946,0.185 q -0.16505,0.31921 -0.16505,0.80041 0,0.4087 0.1314,0.71337 a 1.1575378,1.2889017 0 0 0 0.0261,0.0557 0.95339418,1.0615907 0 0 0 0.347467,0.41232 0.98054093,1.0918183 0 0 0 0.22478,0.11126 1.130391,1.2586742 0 0 0 0.327937,0.052 1.3671107,1.5222582 0 0 0 0.23889,-0.023 0.938192,1.0446634 0 0 0 0.552707,-0.3325 0.9816268,1.0930274 0 0 0 0.117267,-0.17894 q 0.0945,-0.18136 0.13683,-0.41594 z m -1.738491,-0.39418 a 1.7829991,1.9853439 0 0 0 0.0163,0.28415 q 0.0196,0.14388 0.0586,0.25996 a 0.73839184,0.82218875 0 0 0 0.10316,0.21159 0.57659717,0.64203268 0 0 0 0.375707,0.24665 0.87412565,0.97332638 0 0 0 0.14769,0.0133 0.81766038,0.91045314 0 0 0 0.21608,-0.029 0.56899607,0.63356895 0 0 0 0.309477,-0.22973 q 0.17916,-0.25754 0.17916,-0.75691 a 1.7569382,1.9563256 0 0 0 -0.0173,-0.27805 q -0.0185,-0.14148 -0.0565,-0.25756 a 0.72536141,0.80767954 0 0 0 -0.10533,-0.21402 0.57876891,0.6444509 0 0 0 -0.360517,-0.2394 0.88824196,0.98904471 0 0 0 -0.16939,-0.0169 0.83829192,0.93342605 0 0 0 -0.208477,0.0276 0.5603091,0.62389618 0 0 0 -0.31274,0.22491 0.72753315,0.81009772 0 0 0 -0.11293,0.24423 q -0.0337,0.11129 -0.05,0.24908 a 1.8600959,2.0711903 0 0 0 -0.0131,0.25995 z"
       id="front_labelLayer"
       stroke="#777777"
       fill="#777777"
       style="fill:#777777;stroke:#777777;stroke-width:0.286457mm"
       vector-effect="non-scaling-stroke" />
    <path
       d="m 7.0131563,34.919139 v 7.078277 H 3.8399715 v 13.465981 h 3.1731848 v 7.078265 h 3.3053997 v -4.143376 h 10.312851 v 4.143376 h 10.312851 v -4.143376 h 10.31285 v 4.143376 H 51.569959 V 58.398286 H 61.88281 v 4.143376 h 3.305401 v -7.078265 h 3.173185 V 41.997416 H 65.188211 V 34.919139 H 61.88281 v 4.143388 H 51.569959 V 34.919139 H 41.257108 v 4.143388 H 30.944258 V 34.919139 H 20.631407 v 4.143388 H 10.318556 v -4.143388 z"
       id="left_outsideCutPath"
       stroke="#FF0000"
       stroke-width="0.1"
       style="stroke:#ff0000;stroke-width:0.120866"
       vector-effect="non-scaling-stroke" />
    <path
       d="m 37.60582,49.16929 v 0.317011 h -0.576462 v 2.376335 h -0.342704 v -2.376335 h -0.40511 v -0.183664 l 0.40511,-0.148441 v -0.149701 a 1.389855,1.652994 0 0 1 0.03173,-0.37488 q 0.100484,-0.510755 0.51194,-0.598811 a 1.0418624,1.2391164 0 0 1 0.185103,-0.01883 1.1042683,1.3133376 0 0 1 0.156544,0.01386 q 0.07616,0.01386 0.160774,0.03776 a 2.2201717,2.6405131 0 0 1 0.104715,0.03522 l -0.08885,0.325833 a 1.6648643,1.9800703 0 0 0 -0.1301,-0.04273 q -0.06558,-0.01883 -0.122697,-0.02644 a 0.73723662,0.87681642 0 0 0 -0.08673,-0.0063 0.46222726,0.54973999 0 0 0 -0.111061,0.01513 0.29722165,0.35349414 0 0 0 -0.175583,0.138382 0.39664811,0.47174484 0 0 0 -0.05289,0.125796 q -0.03491,0.122019 -0.03914,0.305694 a 1.619382,1.9259769 0 0 0 -0.0011,0.0604 v 0.174864 z m -1.605632,1.162379 v 0.257885 h -1.559091 q 0.0095,0.474254 0.200968,0.719562 a 0.62300196,0.7409539 0 0 0 0.326838,0.220156 0.94455136,1.1233817 0 0 0 0.211546,0.02644 q 0.365974,0 0.722428,-0.182416 v 0.363563 a 2.0583392,2.4480413 0 0 1 -0.187218,0.0843 1.5738997,1.8718835 0 0 1 -0.156543,0.05035 q -0.161833,0.0403 -0.39136,0.0403 a 1.3327376,1.5850626 0 0 1 -0.333184,-0.04781 0.94349363,1.1221237 0 0 1 -0.459054,-0.315753 1.0090728,1.2001189 0 0 1 -0.241162,-0.527097 q -0.04231,-0.18744 -0.0476,-0.410103 a 1.9589128,2.3297905 0 0 1 -0.0011,-0.07298 1.8002535,2.1410926 0 0 1 0.03279,-0.425196 q 0.06135,-0.361045 0.236931,-0.608871 a 0.87897221,1.0453866 0 0 1 0.639925,-0.379915 1.2121566,1.4416522 0 0 1 0.08356,-0.0042 q 0.426264,0 0.673773,0.333365 0.247508,0.332105 0.247508,0.878073 z m 3.060008,1.193827 v 0.311987 q -0.05077,0.02888 -0.143851,0.04908 a 1.2840821,1.5271953 0 0 1 -0.0201,0.0042 q -0.101542,0.0201 -0.184044,0.02137 a 0.87897221,1.0453866 0 0 1 -0.01163,0 0.89589586,1.0655143 0 0 1 -0.264432,-0.04273 q -0.392418,-0.143418 -0.392418,-0.781207 v -1.601422 h -0.324722 v -0.19624 l 0.324722,-0.169829 0.144909,-0.574907 h 0.197795 v 0.623965 h 0.65685 v 0.317011 h -0.65685 v 1.585059 q 0,0.171088 0.0476,0.285566 a 0.33212668,0.39500768 0 0 0 0.04971,0.08811 0.31837621,0.37865386 0 0 0 0.19568,0.123289 0.45799635,0.54470805 0 0 0 0.07087,0.0063 1.1264806,1.3397554 0 0 0 0.165005,-0.01386 1.0376314,1.2340845 0 0 0 0.01058,-0.0021 q 0.08039,-0.01513 0.1301,-0.03142 a 0.5161714,0.61389729 0 0 0 0.0042,-0.0011 z m -5.576343,-3.485892 v 3.823032 h -0.342704 v -3.823032 z m 0.964648,2.217834 h 1.184656 a 1.1687898,1.3900748 0 0 0 -0.01481,-0.222662 q -0.03067,-0.226439 -0.1301,-0.367328 a 0.46963136,0.55854589 0 0 0 -0.283471,-0.192464 0.70444704,0.83781884 0 0 0 -0.130101,-0.01386 0.67588838,0.80385321 0 0 0 -0.194622,0.03268 0.52251777,0.62144521 0 0 0 -0.240104,0.178629 0.6769461,0.8051112 0 0 0 -0.134332,0.270472 q -0.03385,0.111961 -0.04971,0.245308 a 1.2957172,1.5410331 0 0 0 -0.0074,0.06918 z"
       id="left_labelLayer"
       stroke="#777777"
       fill="#777777"
       style="fill:#777777;stroke:#777777;stroke-width:0.28838mm"
       vector-effect="non-scaling-stroke" />
    <path
       d="m 145.35444,65.869096 v 3.168958 h -3.21126 v 9.887151 h 3.21126 v 9.887151 h -3.21126 v 9.88715 h 3.21126 v 9.887154 h -3.21126 v 9.88715 h 3.21126 v 3.16896 h 8.42956 v 3.0422 h 10.43661 v -3.0422 h 10.4366 v 3.0422 h 10.43661 v -3.0422 h 10.43661 v 3.0422 h 10.4366 v -3.0422 h 10.43661 v 3.0422 h 10.4366 v -3.0422 h 8.42957 v -3.16896 h 3.21126 v -9.88715 h -3.21126 v -9.887154 h 3.21126 v -9.88715 h -3.21126 v -9.887151 h 3.21126 v -9.887151 h -3.21126 v -3.168958 h -8.42957 v -3.042201 h -10.4366 v 3.042201 h -10.43661 v -3.042201 h -10.4366 v 3.042201 h -10.43661 v -3.042201 h -10.43661 v 3.042201 h -10.4366 V 62.826895 H 153.784 v 3.042201 z"
       id="top_outsideCutPath"
       stroke="#FF0000"
       stroke-width="0.1"
       style="stroke:#ff0000;stroke-width:0.104186"
       vector-effect="non-scaling-stroke" />
    <path
       d="m 195.00485,95.496069 h -0.076 a 10.016999,9.4896365 0 0 1 0.0653,0.70072 8.3942411,7.9523113 0 0 1 0.0106,0.398528 v 2.723784 h -1.05865 v -9.592058 h 0.8617 l 0.14664,0.905562 h 0.0503 q 0.4089,-0.54354 0.95053,-0.784887 a 2.6503623,2.5108292 0 0 1 0.76,-0.210927 3.4306992,3.2500839 0 0 1 0.48383,-0.03042 3.2444459,3.0736362 0 0 1 0.91628,0.115603 2.3977429,2.2715095 0 0 1 1.22884,0.783874 q 0.75572,0.900491 0.75572,2.525026 a 6.2063007,5.8795589 0 0 1 -0.0824,0.989729 q -0.0953,0.527315 -0.29972,0.95018 a 2.9746999,2.8180914 0 0 1 -0.38642,0.594244 q -0.76856,0.903533 -2.13228,0.903533 a 3.2101924,3.0411862 0 0 1 -0.8071,-0.0933 2.7937987,2.6467142 0 0 1 -0.43994,-0.146025 2.3442219,2.2208062 0 0 1 -0.94732,-0.733171 z m -10.34241,0.02332 v 0.767648 q -0.15521,0.07099 -0.44422,0.11966 a 3.9605576,3.7520469 0 0 1 -0.0632,0.01014 4.5878242,4.34629 0 0 1 -0.29864,0.03651 q -0.1413,0.01318 -0.26761,0.0142 a 2.7145876,2.5716732 0 0 1 -0.0364,0.001 2.7648974,2.6193343 0 0 1 -0.8146,-0.104448 Q 181.525,96.010205 181.525,94.444486 v -3.938635 h -1.00083 v -0.482696 l 1.00083,-0.416781 0.44638,-1.413609 h 0.61228 v 1.534282 h 2.02737 v 0.778804 h -2.02737 v 3.896044 a 2.1312082,2.0190069 0 0 0 0.031,0.354924 q 0.0653,0.345796 0.26868,0.563821 0.29971,0.320445 0.82208,0.320445 a 3.4767273,3.2936888 0 0 0 0.50952,-0.03448 3.2059107,3.0371298 0 0 0 0.0332,-0.0051 5.7267522,5.425257 0 0 0 0.15307,-0.02535 q 0.14557,-0.02535 0.24727,-0.05273 a 1.5863639,1.5028469 0 0 0 0.0139,-0.0041 z m 7.33131,-1.480538 a 5.4677103,5.1798529 0 0 0 0.0974,-1.007982 q 0,-1.576874 -0.86383,-2.500688 a 2.7713199,2.6254188 0 0 0 -1.28665,-0.785903 3.5570089,3.3697437 0 0 0 -1.04472,-0.137912 q -1.51679,0 -2.37205,0.902519 a 2.9243901,2.7704303 0 0 0 -0.35859,0.471541 q -0.27725,0.457345 -0.39928,1.043475 a 5.4955412,5.2062186 0 0 0 -0.0963,1.006968 5.2953725,5.0165882 0 0 0 0.0663,0.812267 3.9155999,3.7094561 0 0 0 0.32969,1.012039 q 0.39499,0.779817 1.1218,1.196598 a 2.9468689,2.7917257 0 0 0 0.67651,0.284954 3.399657,3.2206759 0 0 0 0.98799,0.131828 4.1104165,3.8940162 0 0 0 0.71719,-0.05679 2.8216297,2.6730799 0 0 0 1.66129,-0.852831 q 0.57161,-0.603369 0.76321,-1.520086 z m -5.22686,-1.007982 q 0,1.268597 0.53521,1.932812 a 1.7351524,1.6438022 0 0 0 1.13037,0.630749 2.6289539,2.4905479 0 0 0 0.44529,0.03448 q 1.03938,0 1.5778,-0.662186 a 2.2725037,2.1528637 0 0 0 0.35431,-0.652045 q 0.10384,-0.302191 0.14879,-0.670298 a 5.5758228,5.2822736 0 0 0 0.0353,-0.61351 5.281457,5.0034053 0 0 0 -0.0493,-0.712889 q -0.0557,-0.363035 -0.17234,-0.657115 a 2.1793771,2.0646399 0 0 0 -0.31685,-0.547596 1.7415749,1.6498866 0 0 0 -1.0822,-0.612497 2.6696298,2.5290824 0 0 0 -0.50845,-0.04361 2.5187005,2.386099 0 0 0 -0.62727,0.06997 1.685913,1.5971551 0 0 0 -0.94196,0.577004 2.1890108,2.0737665 0 0 0 -0.3404,0.622637 q -0.0996,0.285967 -0.14664,0.636835 a 5.5929495,5.2984987 0 0 0 -0.0418,0.667255 z m 8.23796,-0.223095 v 0.223095 a 6.9984122,6.6299683 0 0 0 0.0353,0.685509 q 0.0953,0.870069 0.456,1.311189 a 1.5360541,1.4551857 0 0 0 0.77927,0.497906 q 0.26011,0.07707 0.57802,0.09633 a 3.4039387,3.2247322 0 0 0 0.21731,0.0071 1.7833213,1.6894352 0 0 0 0.69363,-0.123716 q 0.40033,-0.158194 0.68506,-0.519202 a 2.1087292,1.9977114 0 0 0 0.0407,-0.05172 q 0.51273,-0.694635 0.51273,-1.915572 0,-0.812267 -0.22051,-1.377102 a 2.2436023,2.1254839 0 0 0 -0.29222,-0.522245 1.6463075,1.5596346 0 0 0 -1.20422,-0.650017 2.2778558,2.157934 0 0 0 -0.23978,-0.01217 3.0496294,2.8890761 0 0 0 -0.57054,0.04766 q -0.31684,0.05679 -0.56089,0.18456 a 1.3990402,1.3253853 0 0 0 -0.41854,0.329571 1.8132931,1.717829 0 0 0 -0.28366,0.489794 q -0.17983,0.462415 -0.20338,1.144882 a 6.7361591,6.381522 0 0 0 -0.004,0.154138 z"
       id="top_labelLayer"
       stroke="#777777"
       fill="#777777"
       style="fill:#777777;stroke:#777777;stroke-width:0.260466mm"
       vector-effect="non-scaling-stroke" />
    <path
       d="m 3.4089829,94.76301 v 7.05854 h 3.2120202 v 13.42844 H 3.4089829 v 7.05857 H 15.052533 v -4.13184 h 10.43903 v 4.13184 h 10.439043 v -4.13184 h 10.43904 v 4.13184 h 10.43904 v -4.13184 h 10.43904 v 4.13184 h 10.439033 v -4.13184 h 10.43904 v 4.13184 h 11.643544 v -7.05857 h -3.212012 v -13.42844 h 3.212012 V 94.76301 H 88.125799 v 4.131809 H 77.686759 V 94.76301 H 67.247726 v 4.131809 H 56.808686 V 94.76301 h -10.43904 v 4.131809 H 35.930606 V 94.76301 H 25.491563 v 4.131809 H 15.052533 V 94.76301 Z"
       id="back_outsideCutPath"
       stroke="#FF0000"
       stroke-width="0.1"
       style="stroke:#ff0000;stroke-width:0.121433"
       vector-effect="non-scaling-stroke" />
    <path
       d="m 50.4899,78.791246 h 0.0171 a 2.0503762,2.3634302 0 0 1 0.05022,-0.07879 Q 50.6427,78.5856 50.780529,78.407019 l 0.738298,-0.902759 h 0.411358 l -0.926347,1.123216 0.990455,1.513629 h -0.418838 l -0.807747,-1.246375 -0.260705,0.259866 v 0.986509 h -0.341909 v -3.742821 h 0.341909 v 1.984098 q 0,0.133012 -0.0171,0.408888 z m -7.009113,1.01114 h -0.02564 l -0.07265,0.338688 H 43.134625 V 76.39826 h 0.346171 v 0.908917 a 7.222795,8.3255799 0 0 1 -0.0043,0.282035 q -0.0043,0.141635 -0.01282,0.267258 h 0.0171 a 0.78745561,0.90768527 0 0 1 0.574833,-0.385492 1.182786,1.3633752 0 0 1 0.143174,-0.0098 q 0.449824,0 0.699845,0.3547 a 1.02038,1.1761728 0 0 1 0.178433,0.397804 q 0.04487,0.163802 0.0609,0.359624 a 2.2234668,2.5629486 0 0 1 0.0096,0.247551 q 0,0.649051 -0.251088,1.008679 a 0.8205779,0.94586471 0 0 1 -0.583382,0.353465 1.1753069,1.3547539 0 0 1 -0.114326,0.006 1.050297,1.2106576 0 0 1 -0.264978,-0.03695 0.91460244,1.054245 0 0 1 -0.143175,-0.0579 0.76715484,0.88428493 0 0 1 -0.309854,-0.291887 z m 3.935143,0.338688 h -0.256431 l -0.06838,-0.375631 h -0.0171 a 1.4360112,1.6552631 0 0 1 -0.116463,0.150253 q -0.06197,0.07142 -0.125,0.120694 a 0.63787109,0.73526199 0 0 1 -0.09936,0.06526 0.79920866,0.9212328 0 0 1 -0.165612,0.05912 q -0.08013,0.01972 -0.172023,0.02588 a 1.5588843,1.7968965 0 0 1 -0.08761,0.0025 1.0631185,1.2254367 0 0 1 -0.215829,-0.02339 q -0.13249,-0.03202 -0.233997,-0.105924 a 0.59620112,0.68722979 0 0 1 -0.08334,-0.07267 0.5694896,0.65643994 0 0 1 -0.172023,-0.346082 0.871864,1.0049812 0 0 1 -0.0203,-0.229074 q 0,-0.798075 1.108001,-0.837484 l 0.387841,-0.01355 v -0.163773 a 0.994737,1.1466145 0 0 0 -0.0096,-0.166268 q -0.01068,-0.08498 -0.03419,-0.152718 a 0.38678281,0.44583726 0 0 0 -0.07159,-0.139171 q -0.09296,-0.118228 -0.273515,-0.141633 a 0.85583708,0.98650729 0 0 0 -0.09723,-0.006 1.1282947,1.300564 0 0 0 -0.259637,0.03696 q -0.119668,0.03203 -0.248952,0.0936 a 2.3196284,2.6737918 0 0 0 -0.138903,0.07142 l -0.105778,-0.305435 a 1.5973488,1.841234 0 0 1 0.307721,-0.146558 1.8185202,2.0961742 0 0 1 0.06197,-0.01972 1.6037596,1.8486236 0 0 1 0.403879,-0.06036 1.4627229,1.6860529 0 0 1 0.223309,0.01849 q 0.114326,0.02093 0.206202,0.06405 a 0.58979035,0.67984024 0 0 1 0.177376,0.126856 0.54812038,0.63180806 0 0 1 0.141037,0.251243 q 0.05556,0.174888 0.05556,0.419975 z m 2.2395,-2.546937 -0.106846,0.338689 a 1.5407204,1.7759595 0 0 0 -0.16668,-0.06405 1.840958,2.1220375 0 0 0 -0.08334,-0.0234 1.430669,1.6491053 0 0 0 -0.108983,-0.0234 q -0.05343,-0.0085 -0.100436,-0.01106 a 0.76822331,0.88551656 0 0 0 -0.03099,-0.0012 q -0.61864,0 -0.688091,0.809159 a 1.9136133,2.2057859 0 0 0 -0.0085,0.215532 q 0,0.318979 0.07372,0.540665 a 0.71907412,0.8288632 0 0 0 0.09616,0.20568 0.5502573,0.63427123 0 0 0 0.356867,0.245086 0.83767325,0.96557019 0 0 0 0.147448,0.01478 1.4499014,1.671274 0 0 0 0.399605,-0.06772 1.7907403,2.0641526 0 0 0 0.186981,-0.0739 v 0.353469 q -0.197665,0.117006 -0.481877,0.134244 a 1.8997233,2.1897756 0 0 1 -0.09616,0.0025 q -0.496836,0 -0.769294,-0.352234 -0.235062,-0.304205 -0.267116,-0.826402 a 2.0941831,2.4139255 0 0 1 -0.0054,-0.171191 1.9114764,2.2033228 0 0 1 0.02991,-0.400269 q 0.03526,-0.222918 0.115395,-0.399035 a 0.95520394,1.1010454 0 0 1 0.131421,-0.222919 0.89750708,1.0345395 0 0 1 0.491492,-0.325142 1.3601505,1.56782 0 0 1 0.295965,-0.03572 1.5631582,1.801823 0 0 1 0.330155,0.04064 1.7287694,1.9927203 0 0 1 0.09616,0.02709 q 0.0983,0.03202 0.162396,0.07019 z m -5.88509,0.30051 a 0.46050659,0.5308173 0 0 0 -0.133558,0.135475 q -0.136763,0.205676 -0.153858,0.660136 a 2.6690149,3.0765236 0 0 0 -0.0021,0.130548 2.29078,2.6405389 0 0 0 0.01068,0.272184 q 0.02564,0.275877 0.10471,0.443375 a 0.52247732,0.6022498 0 0 0 0.04487,0.0788 0.50217658,0.57884948 0 0 0 0.255363,0.198282 q 0.113257,0.04189 0.260705,0.04189 a 0.69022567,0.79561013 0 0 0 0.195529,-0.03078 0.49790272,0.57392309 0 0 0 0.279938,-0.2377 q 0.112189,-0.192129 0.143174,-0.503721 a 1.9852,2.2883029 0 0 0 0.01282,-0.267255 q 0,-0.487713 -0.139968,-0.740191 a 0.57483191,0.66259791 0 0 0 -0.01602,-0.0271 0.50538196,0.58254425 0 0 0 -0.321608,-0.235231 0.8013456,0.923696 0 0 0 -0.162406,-0.01727 q -0.230789,0 -0.378237,0.09853 z m 3.299409,1.18849 v -0.238931 l -0.346172,0.01723 q -0.413496,0.01725 -0.596203,0.147793 a 0.36968743,0.42613177 0 0 0 -0.1763,0.309127 0.54705193,0.63057647 0 0 0 -0.0064,0.09854 q 0,0.216759 0.114329,0.330068 0.0983,0.09728 0.263911,0.110831 a 0.77890792,0.89783247 0 0 0 0.05449,0.0012 0.95413547,1.0998138 0 0 0 0.205145,-0.0234 q 0.144243,-0.03696 0.25001,-0.129319 a 0.57803729,0.6662927 0 0 0 0.05235,-0.05171 q 0.183765,-0.203214 0.184834,-0.567765 a 1.10372,1.2722374 0 0 0 0,-0.0036 z"
       id="back_labelLayer"
       stroke="#777777"
       fill="#777777"
       style="fill:#777777;stroke:#777777;stroke-width:0.286783mm"
       vector-effect="non-scaling-stroke" />
    <path
       d="m 75.973291,34.967138 v 7.050158 h -3.155275 v 13.412492 h 3.155275 v 7.050155 h 3.286746 v -4.126916 h 10.254658 v 4.126916 h 10.254646 v -4.126916 h 10.254619 v 4.126916 h 10.25465 v -4.126916 h 10.25464 v 4.126916 H 133.82 v -7.050155 h 3.15529 V 42.017296 H 133.82 v -7.050158 h -3.28675 v 4.12692 h -10.25464 v -4.12692 h -10.25465 v 4.12692 H 99.769341 v -4.12692 H 89.514695 v 4.12692 H 79.260037 v -4.12692 z"
       id="right_outsideCutPath"
       stroke="#FF0000"
       stroke-width="0.1"
       style="stroke:#ff0000;stroke-width:0.120284"
       vector-effect="non-scaling-stroke" />
    <path
       d="m 107.62941,51.84037 h -0.34081 v -1.768236 a 0.96352852,1.1694626 0 0 0 -0.0106,-0.182571 q -0.0263,-0.200442 -0.11464,-0.315344 a 0.38499065,0.46727436 0 0 0 -0.15779,-0.122564 q -0.0989,-0.04215 -0.23458,-0.04215 -0.23246,0 -0.38288,0.09959 a 0.4775567,0.57962448 0 0 0 -0.13569,0.134059 q -0.16409,0.23491 -0.16409,0.768575 v 1.428633 h -0.34082 v -3.879911 h 0.34082 v 1.174571 a 3.0683543,3.7241512 0 0 1 -0.002,0.142993 q -0.002,0.06639 -0.006,0.125116 a 1.3337926,1.6188632 0 0 1 -0.007,0.08295 h 0.02 a 0.68162278,0.82730542 0 0 1 0.23878,-0.278325 0.83204264,1.0098744 0 0 1 0.0484,-0.03194 0.87516999,1.0622193 0 0 1 0.28715,-0.103403 1.1065851,1.3430947 0 0 1 0.13676,-0.01031 q 0.27138,0 0.45441,0.103403 a 0.61430201,0.74559625 0 0 1 0.16516,0.135333 q 0.20616,0.237464 0.20616,0.757086 z m -3.12199,-2.733427 h 0.77839 v 0.263002 l -0.4176,0.05872 q 0.0484,0.07406 0.0884,0.185123 a 1.051887,1.2767059 0 0 1 0.0147,0.04341 0.65637751,0.79666447 0 0 1 0.0389,0.190231 0.8425615,1.0226414 0 0 1 0.006,0.127669 q 0,0.402162 -0.22616,0.640907 -0.20301,0.215763 -0.54382,0.237465 a 1.4810569,1.7976019 0 0 1 -0.0767,0.0025 1.0960663,1.3303277 0 0 1 -0.12624,-0.0089 0.92566056,1.1235011 0 0 1 -0.062,-0.01143 q -0.21773,0.139161 -0.21773,0.351093 0,0.112354 0.0757,0.165973 0.0611,0.04341 0.19248,0.05235 a 1.2969768,1.5741783 0 0 0 0.0684,0.0012 h 0.39866 a 1.3958541,1.6941886 0 0 1 0.21144,0.01916 q 0.21563,0.03957 0.35026,0.168528 a 0.49859445,0.6051586 0 0 1 0.18514,0.385563 0.74894356,0.90901461 0 0 1 0.0106,0.157035 0.73842468,0.89624757 0 0 1 -0.042,0.310241 q -0.0673,0.225977 -0.24613,0.372798 a 0.81100489,0.98434026 0 0 1 -0.0116,0.0088 1.0224342,1.2409579 0 0 1 -0.26297,0.145546 q -0.13044,0.04852 -0.28927,0.07151 a 2.7033497,3.2811343 0 0 1 -0.32293,0.0217 1.9112787,2.3197744 0 0 1 -0.25559,-0.01915 q -0.26089,-0.04341 -0.42498,-0.180018 a 0.54382558,0.66005696 0 0 1 -0.17566,-0.231085 q -0.0557,-0.126394 -0.0632,-0.285981 a 0.72054261,0.87454355 0 0 1 -0.001,-0.04723 0.52173596,0.63324613 0 0 1 0.13149,-0.431528 0.59536805,0.72261551 0 0 1 0.20511,-0.180017 0.8436134,1.0239182 0 0 1 0.16514,-0.06639 q -0.0863,-0.04723 -0.14516,-0.146822 a 0.316618,0.38428849 0 0 1 -0.0578,-0.208103 0.39130197,0.4749346 0 0 1 -10e-4,-0.02425 q 0,-0.149374 0.0663,-0.261723 0.0495,-0.08426 0.14306,-0.164694 a 1.0708209,1.2996869 0 0 1 0.0642,-0.05235 0.59747183,0.72516895 0 0 1 -0.25982,-0.251509 0.74052845,0.89880096 0 0 1 -0.0242,-0.04469 0.70476429,0.85539295 0 0 1 -0.10833,-0.412378 0.86044358,1.0443453 0 0 1 -0.002,-0.06639 0.98561814,1.1962734 0 0 1 0.0263,-0.283429 0.6479624,0.78645082 0 0 1 0.19565,-0.408545 0.72475016,0.87965036 0 0 1 0.2777,-0.1864 q 0.15463,-0.05745 0.35134,-0.05745 a 1.3074956,1.5869457 0 0 1 0.17251,0.01405 0.99613701,1.2090403 0 0 1 0.14621,0.03575 z m 4.85867,2.391271 v 0.3179 q -0.0505,0.02809 -0.14307,0.04852 a 1.2769909,1.5499211 0 0 1 -0.021,0.0052 q -0.1,0.01916 -0.18198,0.02042 a 0.87411812,1.0609428 0 0 1 -0.0116,0 0.8909483,1.08137 0 0 1 -0.26297,-0.04215 q -0.39026,-0.14682 -0.39026,-0.792834 v -1.626549 h -0.32293 v -0.199155 l 0.32293,-0.172355 0.14307,-0.583453 h 0.19775 v 0.633245 h 0.65322 v 0.32173 h -0.65322 v 1.608645 q 0,0.173633 0.0474,0.291089 a 0.33029252,0.40088565 0 0 0 0.0495,0.08808 0.316618,0.38428849 0 0 0 0.19459,0.126392 0.45546708,0.55281367 0 0 0 0.0705,0.0064 1.1202596,1.3596919 0 0 0 0.16409,-0.01531 1.0319012,1.2524485 0 0 0 0.0106,-0.0012 q 0.0799,-0.01531 0.12834,-0.03193 a 0.51332085,0.62303247 0 0 0 0.005,-0.0025 z m -7.40845,-2.410423 -0.0474,0.384291 q -0.13989,-0.03828 -0.24718,-0.03828 a 0.5911605,0.7175087 0 0 0 -0.43654,0.229805 0.80784924,0.98051012 0 0 0 -0.0305,0.03957 0.77839639,0.94476236 0 0 0 -0.1883,0.531108 1.0350568,1.2562786 0 0 0 -0.005,0.140437 v 1.465661 h -0.34185 v -2.73342 h 0.2819 l 0.0389,0.506855 h 0.0168 a 1.1518164,1.3979929 0 0 1 0.12834,-0.223425 0.87937755,1.0673262 0 0 1 0.17355,-0.187677 0.67951902,0.824752 0 0 1 0.38817,-0.145547 1.5652079,1.8997384 0 0 1 0.13988,0.0077 1.1423493,1.3865027 0 0 1 0.12939,0.02296 z m 0.76156,0.01916 v 2.733428 h -0.34081 v -2.733431 z m 1.67041,2.67087 h -0.40814 q -0.1704,0 -0.28507,0.07275 a 0.39971707,0.48514823 0 0 0 -0.0768,0.06256 0.35974537,0.43663343 0 0 0 -0.11782,0.246406 0.54592937,0.66261036 0 0 0 -0.0116,0.13916 0.34291516,0.41620612 0 0 0 0.0221,0.154481 q 0.0326,0.09958 0.1115,0.167249 a 0.39971707,0.48514823 0 0 0 0.02,0.01531 0.54592937,0.66261036 0 0 0 0.13465,0.07021 q 0.12728,0.04469 0.30715,0.04469 0.38393,0 0.58904,-0.123837 a 0.56696709,0.68814446 0 0 0 0.0474,-0.03193 0.49754257,0.60388189 0 0 0 0.11465,-0.117467 0.372368,0.45195386 0 0 0 0.0915,-0.305134 0.4617784,0.56047389 0 0 0 -0.008,-0.111073 q -0.0106,-0.06383 -0.0347,-0.112351 a 0.21458495,0.26044798 0 0 0 -0.0694,-0.08426 0.32398121,0.39322539 0 0 0 -0.0768,-0.04088 q -0.12202,-0.04597 -0.34923,-0.04597 z m -0.71423,-1.79505 a 0.66584449,0.80815481 0 0 0 0.0137,0.169802 q 0.0284,0.163418 0.11889,0.264278 a 0.44074067,0.53493979 0 0 0 0.17775,0.116178 q 0.0863,0.03064 0.19461,0.03064 0.39445,0 0.47755,-0.366413 a 0.69108977,0.83879579 0 0 0 0.0221,-0.222148 0.73316526,0.88986401 0 0 0 -0.0252,-0.24385 q -0.0873,-0.371523 -0.4807,-0.371523 -0.18409,0 -0.30295,0.09194 a 0.39235386,0.47621129 0 0 0 -0.0663,0.06512 0.40918406,0.49663861 0 0 0 -0.1,0.201719 q -0.0295,0.114907 -0.0295,0.264279 z m -1.32118,-1.691635 a 0.37762744,0.45833742 0 0 0 -0.004,0.07532 q 0,0.140437 0.0568,0.208099 a 0.19144343,0.23236047 0 0 0 0.0694,0.05363 0.21668873,0.26300141 0 0 0 0.0747,0.01531 q 0.0821,0 0.14201,-0.06894 a 0.16619815,0.20171952 0 0 0 0.0326,-0.05107 q 0.0147,-0.03448 0.021,-0.07787 a 0.35238215,0.42769646 0 0 0 0.006,-0.07914 0.39025009,0.4736579 0 0 0 -0.002,-0.04468 q -0.003,-0.04087 -0.0127,-0.07406 a 0.17250948,0.20937974 0 0 0 -0.0453,-0.08809 q -0.0599,-0.06639 -0.14201,-0.06639 a 0.25981611,0.31534637 0 0 0 -0.0168,0 0.19670287,0.238744 0 0 0 -0.12728,0.06512 q -0.0399,0.04724 -0.0526,0.13278 z"
       id="right_labelLayer"
       stroke="#777777"
       fill="#777777"
       style="fill:#777777;stroke:#777777;stroke-width:0.289714mm"
       vector-effect="non-scaling-stroke" />
    <path
       d="m 145.16069,3.0160495 v 3.1935449 h -3.23617 v 9.9638606 h 3.23617 v 9.963859 h -3.23617 v 9.963861 h 3.23617 v 9.963859 h -3.23617 v 9.96386 h 3.23617 v 3.193544 h 8.49496 v 3.065802 h 10.51759 v -3.065802 h 10.51757 v 3.065802 h 10.51757 v -3.065802 h 10.51759 v 3.065802 h 10.51757 v -3.065802 h 10.51758 v 3.065802 h 10.51758 v -3.065802 h 8.49496 v -3.193544 h 3.23618 v -9.96386 h -3.23618 v -9.963859 h 3.23618 v -9.963861 h -3.23618 v -9.963859 h 3.23618 V 6.2095944 h -3.23618 V 3.0160495 H 227.2787 V -0.04975338 H 216.76112 V 3.0160495 H 206.24354 V -0.04975338 H 195.72597 V 3.0160495 H 185.20838 V -0.04975338 H 174.69081 V 3.0160495 H 164.17324 V -0.04975338 H 153.65565 V 3.0160495 Z"
       id="bottom_outsideCutPath"
       stroke="#FF0000"
       stroke-width="0.1"
       style="stroke:#ff0000;stroke-width:0.104994"
       vector-effect="non-scaling-stroke" />
    <path
       d="m 212.11613,35.794594 h -1.06687 v -4.341178 a 3.1466433,2.9809823 0 0 0 -0.0313,-0.437387 q -0.0357,-0.223804 -0.11003,-0.404685 a 1.2890773,1.2212115 0 0 0 -0.2179,-0.35359 q -0.31499,-0.34848 -0.93418,-0.392423 a 2.4756758,2.3453393 0 0 0 -0.18445,-0.0061 q -0.99567,0 -1.47139,0.541625 -0.47572,0.541626 -0.47572,1.667798 v 3.725972 h -1.06686 v -4.341178 a 3.1466433,2.9809823 0 0 0 -0.0313,-0.437387 q -0.0357,-0.223804 -0.11003,-0.404685 a 1.2890773,1.2212115 0 0 0 -0.2179,-0.35359 q -0.3603,-0.398555 -1.12511,-0.398555 a 2.6493507,2.5098707 0 0 0 -0.548,0.05008 q -0.33764,0.06745 -0.59006,0.226869 a 1.3980287,1.3244268 0 0 0 -0.33009,0.292273 1.7885274,1.6943672 0 0 0 -0.26536,0.477244 q -0.17152,0.460892 -0.19634,1.15172 a 7.4270274,7.0360178 0 0 0 -0.004,0.237089 v 3.500125 h -1.06686 v -6.672244 h 0.86838 l 0.17259,0.912587 h 0.0517 q 0.30204,-0.486441 0.85111,-0.760319 a 2.5328483,2.3995018 0 0 1 1.00106,-0.265703 3.0592665,2.8982057 0 0 1 0.22977,-0.0082 3.4929143,3.3090233 0 0 1 0.78638,0.07767 q 0.48328,0.10526 0.82092,0.356656 a 1.8208892,1.7250251 0 0 1 0.55231,0.697981 h 0.0507 a 2.227569,2.1102944 0 0 1 0.83925,-0.788934 2.6763188,2.535419 0 0 1 0.0734,-0.03884 2.7000507,2.5579016 0 0 1 0.99027,-0.286141 3.3667034,3.189457 0 0 1 0.37217,-0.0184 3.7075808,3.5123882 0 0 1 0.67312,0.05417 q 0.37325,0.06541 0.66557,0.209497 a 1.7583231,1.665753 0 0 1 0.45092,0.317823 1.8370701,1.7403541 0 0 1 0.39481,0.611115 q 0.19957,0.506881 0.19957,1.248805 z m -42.23104,-0.858426 h -0.0777 l -0.22438,0.858426 h -0.76483 v -9.472309 h 1.06687 v 2.300373 a 22.240091,21.06922 0 0 1 -0.0129,0.712288 q -0.0119,0.336218 -0.0357,0.636666 a 13.293138,12.593296 0 0 1 -0.003,0.03986 h 0.0517 a 2.4249758,2.2973083 0 0 1 1.77019,-0.973904 3.6428572,3.4510722 0 0 1 0.44012,-0.02453 3.2599095,3.0882855 0 0 1 0.91692,0.115479 2.4400778,2.3116154 0 0 1 1.23837,0.781779 3.1434072,2.9779166 0 0 1 0.55123,1.005583 q 0.21683,0.663236 0.21683,1.535967 a 6.2544525,5.9251752 0 0 1 -0.0831,0.997408 q -0.0949,0.531407 -0.30204,0.957553 a 2.9977791,2.8399554 0 0 1 -0.38942,0.598854 q -0.77344,0.910542 -2.14882,0.910542 a 3.2350988,3.064781 0 0 1 -0.81336,-0.09402 2.8154745,2.6672485 0 0 1 -0.44336,-0.146136 2.3624096,2.2380361 0 0 1 -0.95359,-0.739881 z m 18.18515,0.02453 v 0.772582 q -0.15641,0.07154 -0.44766,0.120589 a 3.9912857,3.7811569 0 0 1 -0.0637,0.01022 4.623419,4.3800104 0 0 1 -0.30096,0.03781 q -0.14238,0.01226 -0.26967,0.01431 a 2.7356488,2.5916254 0 0 1 -0.0367,0 2.7863489,2.6396564 0 0 1 -0.82091,-0.104236 q -1.2222,-0.357677 -1.2222,-1.935544 v -3.969193 h -1.00861 v -0.486441 l 1.00861,-0.420015 0.44983,-1.424577 h 0.61703 v 1.546188 h 2.04311 v 0.784845 h -2.04311 v 3.927294 a 2.1477432,2.0346711 0 0 0 0.0313,0.356655 q 0.0658,0.349502 0.27076,0.568196 0.30205,0.32293 0.82847,0.32293 a 3.5037015,3.3192427 0 0 0 0.51346,-0.03475 3.2307839,3.0606932 0 0 0 0.0335,-0.0051 5.7711833,5.4673486 0 0 0 0.15426,-0.02453 q 0.14671,-0.02657 0.24918,-0.05314 a 1.5986717,1.5145067 0 0 0 0.014,-0.0041 z m 4.64608,0 v 0.772582 q -0.15642,0.07154 -0.44766,0.120589 a 3.9912857,3.7811569 0 0 1 -0.0637,0.01022 4.623419,4.3800104 0 0 1 -0.30096,0.03781 q -0.14239,0.01226 -0.26968,0.01431 a 2.7356488,2.5916254 0 0 1 -0.0367,0 2.7863489,2.6396564 0 0 1 -0.82091,-0.104236 q -1.22219,-0.357677 -1.22219,-1.935544 v -3.969193 h -1.00862 v -0.486441 l 1.00862,-0.420015 0.44982,-1.424577 h 0.61703 v 1.546188 h 2.0431 v 0.784845 h -2.0431 v 3.927294 a 2.1477432,2.0346711 0 0 0 0.0313,0.356655 q 0.0658,0.349502 0.27077,0.568196 0.30204,0.32293 0.82845,0.32293 a 3.5037015,3.3192427 0 0 0 0.51348,-0.03475 3.2307839,3.0606932 0 0 0 0.0335,-0.0051 5.7711833,5.4673486 0 0 0 0.15317,-0.02453 q 0.14778,-0.02657 0.25027,-0.05314 a 1.5986717,1.5145067 0 0 0 0.014,-0.0041 z m -9.85309,-1.493046 a 5.5101316,5.2200405 0 0 0 0.0982,-1.015803 q 0,-1.588086 -0.87053,-2.520089 a 2.7928213,2.6457879 0 0 0 -1.29663,-0.791999 3.584606,3.3958878 0 0 0 -1.05176,-0.138984 q -1.52962,0 -2.39045,0.909522 a 2.9470791,2.7919245 0 0 0 -0.36245,0.476222 q -0.27831,0.45987 -0.4013,1.050548 a 5.5381786,5.2466108 0 0 0 -0.0981,1.01478 5.3364568,5.055509 0 0 0 0.068,0.819592 3.9459791,3.7382357 0 0 0 0.33117,1.018869 q 0.39805,0.785867 1.1305,1.205882 a 2.9697323,2.8133852 0 0 0 0.68176,0.287164 3.4260333,3.2456634 0 0 0 0.99566,0.13285 4.1423073,3.9242278 0 0 0 0.72383,-0.05723 2.8435213,2.6938189 0 0 0 1.67309,-0.859447 q 0.57604,-0.608052 0.76913,-1.531879 z m 17.24128,0 a 5.5101316,5.2200405 0 0 0 0.0981,-1.015803 q 0,-1.588086 -0.87054,-2.520089 a 2.7928213,2.6457879 0 0 0 -1.29662,-0.791999 3.584606,3.3958878 0 0 0 -1.05285,-0.138984 q -1.52854,0 -2.39044,0.909522 a 2.9470791,2.7919245 0 0 0 -0.36137,0.476222 q -0.2794,0.45987 -0.40237,1.050548 a 5.5381786,5.2466108 0 0 0 -0.0971,1.01478 5.3364568,5.055509 0 0 0 0.0668,0.819592 3.9459791,3.7382357 0 0 0 0.33118,1.018869 q 0.39913,0.785867 1.13158,1.205882 a 2.9697323,2.8133852 0 0 0 0.68176,0.287164 3.4260333,3.2456634 0 0 0 0.99566,0.13285 4.1423073,3.9242278 0 0 0 0.72275,-0.05723 2.8435213,2.6938189 0 0 0 1.67417,-0.859447 q 0.57604,-0.608052 0.76914,-1.531879 z m -22.50869,-1.015805 q 0,1.278441 0.53936,1.948829 a 1.7486146,1.6565555 0 0 0 1.13913,0.634621 2.6493507,2.5098707 0 0 0 0.44876,0.03475 q 1.04744,0 1.59003,-0.666302 a 2.2901349,2.1695665 0 0 0 0.35707,-0.658125 q 0.10466,-0.304537 0.14994,-0.675499 a 5.619083,5.3232559 0 0 0 0.0367,-0.618271 5.3224333,5.0422238 0 0 0 -0.0507,-0.718419 q -0.0561,-0.365853 -0.17369,-0.662214 a 2.1962858,2.0806582 0 0 0 -0.31931,-0.551845 1.755087,1.6626871 0 0 0 -1.09057,-0.616225 2.6903422,2.5487042 0 0 0 -0.5124,-0.04395 2.5382419,2.4046115 0 0 0 -0.63214,0.06949 1.6989932,1.6095465 0 0 0 -0.94928,0.58148 2.2059944,2.0898557 0 0 0 -0.34196,0.627468 q -0.10138,0.289207 -0.14885,0.641775 a 5.6363425,5.3396068 0 0 0 -0.042,0.672432 z m 17.24128,0 q 0,1.278441 0.53936,1.948829 a 1.7486146,1.6565555 0 0 0 1.13914,0.634621 2.6493507,2.5098707 0 0 0 0.44875,0.03475 q 1.04744,0 1.59003,-0.666302 a 2.2901349,2.1695665 0 0 0 0.35598,-0.658125 q 0.10573,-0.304537 0.15102,-0.675499 a 5.619083,5.3232559 0 0 0 0.0357,-0.618271 5.3224333,5.0422238 0 0 0 -0.0497,-0.718419 q -0.0561,-0.365853 -0.17367,-0.662214 a 2.1962858,2.0806582 0 0 0 -0.31931,-0.551845 1.755087,1.6626871 0 0 0 -1.09058,-0.616225 2.6903422,2.5487042 0 0 0 -0.5124,-0.04395 2.5382419,2.4046115 0 0 0 -0.63213,0.06949 1.6989932,1.6095465 0 0 0 -0.94928,0.58148 2.2059944,2.0898557 0 0 0 -0.34304,0.627468 q -0.10025,0.289207 -0.14779,0.641775 a 5.6363425,5.3396068 0 0 0 -0.042,0.672432 z M 171.94114,29.8592 a 2.9977791,2.8399554 0 0 0 -0.58036,0.04905 q -0.33117,0.06234 -0.58251,0.201321 a 1.4185245,1.3438436 0 0 0 -0.41207,0.34337 q -0.42286,0.521186 -0.47465,1.669841 a 8.2188122,7.7861175 0 0 0 -0.006,0.329062 7.0527096,6.6814065 0 0 0 0.0344,0.690828 q 0.096,0.876819 0.45954,1.321361 a 1.5479716,1.4664757 0 0 0 0.78532,0.50177 q 0.26212,0.07869 0.5825,0.09811 a 3.4303483,3.2497512 0 0 0 0.22007,0.0061 2.1261686,2.0142326 0 0 0 0.60408,-0.07665 1.5339482,1.4531906 0 0 0 0.86082,-0.601919 2.4487077,2.3197909 0 0 0 0.30312,-0.621337 q 0.17907,-0.554909 0.17907,-1.329536 0,-1.235519 -0.43364,-1.874228 a 1.7691103,1.6759722 0 0 0 -0.0486,-0.06847 1.5555227,1.4736293 0 0 0 -0.99026,-0.593744 2.4670461,2.3371638 0 0 0 -0.50054,-0.04497 z"
       id="bottom_labelLayer"
       stroke="#777777"
       fill="#777777"
       style="fill:#777777;stroke:#777777;stroke-width:0.262486mm"
       vector-effect="non-scaling-stroke" />
    <rect
       style="fill:#000000;fill-opacity:0;fill-rule:evenodd;stroke:#000000;stroke-width:0.962929"
       id="rect12716"
       width="52.444794"
       height="15.393577"
       x="79.005981"
       y="40.906502"
       ry="0" />
    <ellipse
       style="fill:#000000;fill-opacity:0;fill-rule:evenodd;stroke:#000000;stroke-width:0.625119"
       id="path13605"
       cx="187.93291"
       cy="95.477036"
       rx="11.651458"
       ry="9.9603529" />
    <rect
       style="fill:#000000;fill-opacity:0;fill-rule:evenodd;stroke:#000000;stroke-width:0.625119"
       id="rect13629"
       width="8.0958309"
       height="4.370779"
       x="205.08231"
       y="72.358337" />
    <ellipse
       style="fill:#000000;fill-opacity:0;fill-rule:evenodd;stroke:#000000;stroke-width:0.629969"
       id="path13765"
       cx="176.85393"
       cy="18.741133"
       rx="2.3762264"
       ry="2.1450176" />
    <ellipse
       style="display:inline;fill:#000000;fill-opacity:0;fill-rule:evenodd;stroke:#000000;stroke-width:0.629969"
       id="path13765-8"
       cx="176.06808"
       cy="31.477091"
       rx="2.3762264"
       ry="2.1450176" />
    <ellipse
       style="display:inline;fill:#000000;fill-opacity:0;fill-rule:evenodd;stroke:#000000;stroke-width:0.629969"
       id="path13765-0"
       cx="191.20488"
       cy="31.322227"
       rx="2.3762264"
       ry="2.1450176" />
    <ellipse
       style="display:inline;fill:#000000;fill-opacity:0;fill-rule:evenodd;stroke:#000000;stroke-width:0.629969"
       id="path13765-5"
       cx="204.3289"
       cy="31.404633"
       rx="2.3762264"
       ry="2.1450176" />
    <ellipse
       style="display:inline;fill:#000000;fill-opacity:0;fill-rule:evenodd;stroke:#000000;stroke-width:0.629969"
       id="path13765-69"
       cx="204.88617"
       cy="45.352989"
       rx="2.3762264"
       ry="2.1450176" />
    <ellipse
       style="display:inline;fill:#000000;fill-opacity:0;fill-rule:evenodd;stroke:#000000;stroke-width:0.629969"
       id="path13765-69-1"
       cx="189.94626"
       cy="45.312115"
       rx="2.3762264"
       ry="2.1450176" />
    <ellipse
       style="display:inline;fill:#000000;fill-opacity:0;fill-rule:evenodd;stroke:#000000;stroke-width:0.629969"
       id="path13765-6"
       cx="190.88344"
       cy="18.707209"
       rx="2.3762264"
       ry="2.1450176" />
    <ellipse
       style="display:inline;fill:#000000;fill-opacity:0;fill-rule:evenodd;stroke:#000000;stroke-width:0.629969"
       id="path13765-68"
       cx="204.80968"
       cy="18.580019"
       rx="2.3762264"
       ry="2.1450176" />
    <ellipse
       style="display:inline;fill:#000000;fill-opacity:0;fill-rule:evenodd;stroke:#000000;stroke-width:0.629969"
       id="path13765-69-10"
       cx="175.62143"
       cy="45.639664"
       rx="2.3762264"
       ry="2.1450176" />
    <rect
       style="fill:#000000;fill-opacity:0;fill-rule:evenodd;stroke:#000000;stroke-width:0.621441"
       id="rect14000"
       width="12.546727"
       height="4.242692"
       x="40.37899"
       y="53.398472" />
    <rect
       style="fill:#000000;fill-opacity:0;fill-rule:evenodd;stroke:#000000;stroke-width:0.625119"
       id="rect14104"
       width="28.202705"
       height="6.1870441"
       x="199.20444"
       y="110.12253" />
    <rect
       style="fill:#000000;fill-opacity:0;fill-rule:evenodd;stroke:#000000;stroke-width:0.545662"
       id="rect14106"
       width="53.383781"
       height="5.0784755"
       x="12.140126"
       y="80.74276" />
    <rect
       style="fill:#000000;fill-opacity:0;fill-rule:evenodd;stroke:#000000;stroke-width:0.634638"
       id="rect14210"
       width="17.914989"
       height="2.7353368"
       x="26.694468"
       y="56.016197" />
  </g>
</svg>
